<svg width="99" height="81" viewBox="0 0 99 81" fill="none" xmlns="http://www.w3.org/2000/svg">
<path d="M25.3787 22.9984C35.7262 6.90238 81.6271 9.52267 94.2459 26.8976C106.865 44.3038 86.1699 76.4646 63.2352 75.1856C40.2689 73.8755 15.0628 39.0944 25.3787 22.9984Z" fill="#F1F4F8"/>
<path d="M65.1478 74.0011C72.1643 74.0011 77.8522 68.3239 77.8522 61.3206C77.8522 54.3174 72.1643 48.6401 65.1478 48.6401C58.1313 48.6401 52.4434 54.3174 52.4434 61.3206C52.4434 68.3239 58.1313 74.0011 65.1478 74.0011Z" stroke="black" stroke-miterlimit="10" stroke-linecap="round"/>
<path d="M79.1237 49.8532C79.4633 50.5124 79.6173 51.2513 79.5691 51.991C79.5209 52.7308 79.2725 53.4436 78.8502 54.0534C78.8013 54.1235 78.7376 54.182 78.6635 54.225C78.5895 54.268 78.507 54.2943 78.4218 54.3022C78.3365 54.31 78.2506 54.2992 78.17 54.2704C78.0893 54.2417 78.0159 54.1958 77.955 54.1358L73.0037 49.3072C72.9427 49.2481 72.8953 49.1765 72.8647 49.0973C72.834 49.0182 72.821 48.9333 72.8264 48.8486C72.8318 48.7639 72.8555 48.6814 72.8959 48.6068C72.9363 48.5321 72.9925 48.4671 73.0605 48.4162C73.7656 47.9014 74.6173 47.6252 75.4909 47.628C76.3646 47.6307 77.2144 47.9123 77.9163 48.4316" fill="#1F7AAD"/>
<path d="M79.1237 49.8532C79.4633 50.5124 79.6173 51.2513 79.5691 51.991C79.5209 52.7308 79.2725 53.4436 78.8502 54.0534C78.8013 54.1235 78.7376 54.182 78.6635 54.225C78.5895 54.268 78.507 54.2943 78.4218 54.3022C78.3365 54.31 78.2506 54.2992 78.17 54.2704C78.0893 54.2417 78.0159 54.1958 77.955 54.1358L73.0037 49.3072C72.9427 49.2481 72.8953 49.1765 72.8647 49.0973C72.834 49.0182 72.821 48.9333 72.8264 48.8486C72.8318 48.7639 72.8555 48.6814 72.8959 48.6068C72.9363 48.5321 72.9925 48.4671 73.0605 48.4162C73.7656 47.9014 74.6173 47.6252 75.4909 47.628C76.3646 47.6307 77.2144 47.9123 77.9163 48.4316" stroke="black" stroke-miterlimit="10"/>
<path d="M51.8749 48.8156C52.5441 48.2033 53.3981 47.8303 54.3027 47.7553C55.2074 47.6802 56.1114 47.9073 56.8726 48.4009C56.9144 48.4273 56.9501 48.4623 56.9773 48.5034C57.0045 48.5446 57.0226 48.5911 57.0304 48.6399C57.0382 48.6886 57.0355 48.7384 57.0226 48.786C57.0096 48.8336 56.9866 48.8779 56.9552 48.916L52.3239 54.7592C52.2936 54.7974 52.2557 54.8288 52.2125 54.8514C52.1694 54.874 52.122 54.8873 52.0733 54.8904C52.0247 54.8936 51.9759 54.8865 51.9302 54.8697C51.8845 54.8528 51.8428 54.8266 51.8079 54.7927C51.2221 54.2368 50.8141 53.5204 50.635 52.7337C50.456 51.947 50.514 51.125 50.8016 50.371" fill="#1F7AAD"/>
<path d="M51.8749 48.8156C52.5441 48.2033 53.3981 47.8303 54.3027 47.7553C55.2074 47.6802 56.1114 47.9073 56.8726 48.4009C56.9144 48.4273 56.9501 48.4623 56.9773 48.5034C57.0045 48.5446 57.0226 48.5911 57.0304 48.6399C57.0382 48.6886 57.0355 48.7384 57.0226 48.786C57.0096 48.8336 56.9866 48.8779 56.9552 48.916L52.3239 54.7592C52.2936 54.7974 52.2557 54.8288 52.2125 54.8514C52.1694 54.874 52.122 54.8873 52.0733 54.8904C52.0247 54.8936 51.9759 54.8865 51.9302 54.8697C51.8845 54.8528 51.8428 54.8266 51.8079 54.7927C51.2221 54.2368 50.8141 53.5204 50.635 52.7337C50.456 51.947 50.514 51.125 50.8016 50.371" stroke="black" stroke-miterlimit="10"/>
<path d="M60.0642 74.1965V77.1477H53.7094C53.655 77.1489 53.6013 77.1353 53.5541 77.1084C53.5068 77.0814 53.4679 77.0421 53.4413 76.9947C53.4148 76.9473 53.4017 76.8936 53.4035 76.8393C53.4052 76.7851 53.4218 76.7323 53.4514 76.6867C53.9803 75.8789 54.6974 75.2109 55.5412 74.7398C56.9265 73.9966 58.5418 73.8026 60.0642 74.1965Z" fill="#1F7AAD" stroke="black" stroke-miterlimit="10"/>
<path d="M69.5566 74.4539V77.4052H75.9037C75.9581 77.4064 76.0118 77.3928 76.059 77.3659C76.1062 77.3389 76.1452 77.2996 76.1717 77.2522C76.1983 77.2048 76.2114 77.1511 76.2096 77.0968C76.2078 77.0425 76.1913 76.9898 76.1617 76.9442C75.6316 76.1364 74.9138 75.4684 74.0692 74.9973C72.6869 74.2567 71.0758 74.0628 69.5566 74.4539Z" fill="#1F7AAD" stroke="black" stroke-miterlimit="10"/>
<path d="M51.333 50.5281C51.8545 50.5281 52.2773 50.1062 52.2773 49.5856C52.2773 49.0651 51.8545 48.6431 51.333 48.6431C50.8115 48.6431 50.3887 49.0651 50.3887 49.5856C50.3887 50.1062 50.8115 50.5281 51.333 50.5281Z" fill="#1F7AAD" stroke="black" stroke-miterlimit="10"/>
<path d="M78.6367 49.9896C79.1582 49.9896 79.581 49.5676 79.581 49.047C79.581 48.5265 79.1582 48.1045 78.6367 48.1045C78.1152 48.1045 77.6924 48.5265 77.6924 49.047C77.6924 49.5676 78.1152 49.9896 78.6367 49.9896Z" fill="#1F7AAD" stroke="black" stroke-miterlimit="10"/>
<path d="M64.0781 54.8491V61.4598" stroke="black" stroke-miterlimit="10" stroke-linecap="round"/>
<path d="M64.0781 61.46L68.8075 66.1804" stroke="black" stroke-miterlimit="10" stroke-linecap="round"/>
<g clip-path="url(#clip0_41_2727)">
<path d="M81.9247 25.5721C83.506 25.5721 84.7879 24.309 84.7879 22.7509C84.7879 21.1928 83.506 19.9297 81.9247 19.9297C80.3434 19.9297 79.0615 21.1928 79.0615 22.7509C79.0615 24.309 80.3434 25.5721 81.9247 25.5721Z" stroke="black" stroke-miterlimit="10" stroke-linecap="round"/>
<path d="M81.0176 20.0749L79.9062 12.8501" stroke="black" stroke-miterlimit="10" stroke-linecap="round"/>
<path d="M95.0462 16.8135L84.4561 21.4328" stroke="black" stroke-miterlimit="10" stroke-linecap="round"/>
<path d="M79.5209 24.2788L75.4883 27.5125" stroke="black" stroke-miterlimit="10" stroke-linecap="round"/>
<path d="M82.4591 30.0781L81.9541 25.5703" stroke="black" stroke-miterlimit="10" stroke-linecap="round"/>
<path d="M79.7447 12.8606C80.5082 12.8606 81.1272 12.2507 81.1272 11.4984C81.1272 10.7461 80.5082 10.1362 79.7447 10.1362C78.9812 10.1362 78.3623 10.7461 78.3623 11.4984C78.3623 12.2507 78.9812 12.8606 79.7447 12.8606Z" fill="#1F7AAD" stroke="black" stroke-miterlimit="10"/>
<path d="M96.3092 17.6252C97.0727 17.6252 97.6916 17.0154 97.6916 16.2631C97.6916 15.5107 97.0727 14.9009 96.3092 14.9009C95.5457 14.9009 94.9268 15.5107 94.9268 16.2631C94.9268 17.0154 95.5457 17.6252 96.3092 17.6252Z" stroke="black" stroke-miterlimit="10" stroke-linecap="round"/>
<path d="M82.6119 32.7956C83.3754 32.7956 83.9943 32.1858 83.9943 31.4335C83.9943 30.6812 83.3754 30.0713 82.6119 30.0713C81.8484 30.0713 81.2295 30.6812 81.2295 31.4335C81.2295 32.1858 81.8484 32.7956 82.6119 32.7956Z" fill="#1F7AAD" stroke="black" stroke-miterlimit="10"/>
<path d="M74.4156 29.7336C75.1791 29.7336 75.7981 29.1238 75.7981 28.3714C75.7981 27.6191 75.1791 27.0093 74.4156 27.0093C73.6521 27.0093 73.0332 27.6191 73.0332 28.3714C73.0332 29.1238 73.6521 29.7336 74.4156 29.7336Z" stroke="black" stroke-miterlimit="10" stroke-linecap="round"/>
</g>
<path d="M56.3543 12.8158C57.3092 13.3653 58.0503 14.2204 58.4575 15.2427C58.8261 16.1779 58.9 17.2029 58.6695 18.1811C58.439 19.1593 57.915 20.044 57.1676 20.7171C56.4201 21.3903 55.4846 21.8198 54.4861 21.9483C53.4877 22.0769 52.4736 21.8984 51.5795 21.4366" fill="#1F7AAD"/>
<path d="M56.3543 12.8158C57.3092 13.3653 58.0503 14.2204 58.4575 15.2427C58.8261 16.1779 58.9 17.2029 58.6695 18.1811C58.439 19.1593 57.915 20.044 57.1676 20.7171C56.4201 21.3903 55.4846 21.8198 54.4861 21.9483C53.4877 22.0769 52.4736 21.8984 51.5795 21.4366" stroke="black" stroke-miterlimit="10"/>
<path d="M26.8183 35.4756L44.4797 11.5083" stroke="black" stroke-miterlimit="10" stroke-linecap="round"/>
<path d="M38.8464 72.1763L25.3967 72.1763C25.1824 72.1763 25.0088 72.706 25.0088 73.3595C25.0088 74.013 25.1824 74.5427 25.3967 74.5427L38.8464 74.5427C39.0606 74.5427 39.2342 74.013 39.2342 73.3595C39.2342 72.706 39.0606 72.1763 38.8464 72.1763Z" fill="#1F7AAD" stroke="black" stroke-miterlimit="10"/>
<path d="M44.43 11.8702C45.7631 9.46673 47.9982 7.69027 50.6437 6.93164C53.2891 6.17302 56.1281 6.49437 58.5361 7.825L59.0051 8.08415L48.9518 26.2089L48.4828 25.9498C46.0748 24.6191 44.295 22.3882 43.5349 19.7478C42.7749 17.1074 43.0968 14.2737 44.43 11.8702V11.8702Z" stroke="black" stroke-miterlimit="10" stroke-linecap="round"/>
<path d="M24.1952 23.3523L32.1899 71.9087" stroke="black" stroke-miterlimit="10" stroke-linecap="round"/>
<defs>
<clipPath id="clip0_41_2727">
<rect width="24.8077" height="22.8061" fill="white" transform="translate(72.959 10.0625)"/>
</clipPath>
</defs>
</svg>
