<svg width="151" height="43" viewBox="0 0 151 43" fill="none" xmlns="http://www.w3.org/2000/svg">
<path fill-rule="evenodd" clip-rule="evenodd" d="M0.0738382 18.545C0.0738382 18.545 -0.0657916 19.3557 0.353098 19.7968C0.771987 20.3131 1.8866 20.2406 1.8866 20.2406H18.2693V16.9238H4.11745V12.8706H13.5986V9.70138H4.11745V5.79495H17.9206V2.62577H1.81639C1.81639 2.62577 0.77118 2.55153 0.353098 3.06778C-0.0657916 3.58318 0.00442671 4.32044 0.00442671 4.32044L0.0738382 18.545Z" fill="#0C0E0F"/>
<path fill-rule="evenodd" clip-rule="evenodd" d="M26.6354 11.6934L32.4207 22.3794L36.2545 20.0208L32.8388 13.6825H39.7404V9.03966H32.8388L36.2545 2.70131L32.4207 0.342773L26.6354 10.9562C26.4965 11.2514 26.4965 11.3982 26.6354 11.6934Z" fill="#D9D945"/>
<path fill-rule="evenodd" clip-rule="evenodd" d="M31.5141 11.6934L25.6585 22.3794L21.8248 20.0208L25.3099 13.6825H18.3389V9.03966H25.3099L21.8248 2.70131L25.6585 0.342773L31.4447 10.9562C31.6537 11.2514 31.6537 11.3982 31.5141 11.6934Z" fill="#616BA9"/>
<path fill-rule="evenodd" clip-rule="evenodd" d="M132.806 18.5469C132.806 18.5469 132.665 19.3575 133.085 19.8738C133.503 20.3158 134.617 20.2424 134.617 20.2424H151V16.999H136.849V12.8715H146.329V9.70236H136.849V5.79592H150.652V2.62675H134.617C134.617 2.62675 133.503 2.55251 133.086 3.06876C132.666 3.58416 132.737 4.32142 132.737 4.32142L132.806 18.5469ZM52.0793 20.3158H48.0357V5.94355H39.8799V2.6276H60.2352V5.94355H52.0793V20.3158ZM109.173 2.6276H119.979C126.601 2.6276 130.156 5.64916 130.156 11.4713C130.156 14.9357 128.622 17.2934 126.183 18.8413C124.44 19.9471 122.069 20.3158 118.934 20.3158H109.173V2.6276ZM118.306 16.778C123.533 16.778 126.043 15.9673 126.043 11.3979C126.043 7.56568 123.881 5.94355 120.048 5.94355H113.285V16.778H118.306ZM91.9537 13.4612L95.8585 6.31218L99.6923 13.4612H91.9537ZM99.6229 5.57578L98.5777 3.58587C98.158 2.99623 97.5308 2.6276 96.8343 2.6276H95.2314C94.5349 2.6276 93.8359 2.99623 93.488 3.58587L92.8609 4.6909L84.0077 20.3158H88.1208L90.2128 16.778H101.365L103.457 20.3158H108.128L99.6229 5.57578ZM75.8511 10.6606H66.7187V6.01779H75.8511C77.5945 6.01779 78.5702 6.97605 78.5702 8.30294C78.5702 9.7766 77.5945 10.6606 75.8511 10.6606ZM83.0311 20.3158L78.7793 13.7564C81.287 13.0192 82.6131 11.1769 82.6131 8.44971C82.6131 4.98529 80.1038 2.6276 76.3394 2.6276H62.675V20.3158H66.7179V14.0508H74.3862L78.5 20.3158H83.0311Z" fill="#0C0E0F"/>
<path fill-rule="evenodd" clip-rule="evenodd" d="M49.2913 23.4865H47.7578V37.8579H49.2913V23.4865ZM52.5674 30.3394H54.1017V28.94H52.5674V25.6966H51.1735V28.94H50.2671V30.3394H51.1735V37.8579H52.5674V30.3394ZM55.8442 23.2646L54.1017 28.2027L55.0775 28.6447L57.1687 23.7818L55.8442 23.2646ZM62.3971 30.3394C61.9783 29.3811 61.0727 28.6447 60.0961 28.6447C58.7716 28.6447 57.5868 29.6764 57.5868 31.2243C57.5868 34.024 61.4205 33.361 61.4205 35.3509C61.4205 36.1624 60.7934 36.7528 60.0259 36.7528C59.1195 36.7528 58.7014 36.1632 58.2833 35.2775L57.0283 35.8671C57.4463 37.2674 58.632 38.1523 60.0259 38.1523C61.6296 38.1523 62.8846 36.8988 62.8846 35.2041C62.8846 33.7287 61.9088 33.0657 60.9331 32.6246C59.9573 32.1834 58.9815 31.8882 58.9815 31.0767C58.9815 30.4887 59.469 30.045 60.0267 30.045C60.515 30.045 60.933 30.4887 61.1421 31.0033L62.3971 30.3394ZM70.9719 37.0481L68.2527 42.9427H69.9259L76.1995 28.94H74.5264L71.808 35.3509L68.8104 28.94H67.1373L70.9719 37.0481ZM80.2431 38.1531C82.683 38.1531 84.704 36.0147 84.704 33.4369C84.704 30.784 82.683 28.6456 80.2431 28.6456C77.7338 28.6456 75.7814 30.784 75.7814 33.4369C75.7798 34.0568 75.8941 34.6709 76.1178 35.2439C76.3415 35.8169 76.6701 36.3376 77.0847 36.7758C77.4993 37.2141 77.9918 37.5614 78.5339 37.7978C79.0759 38.0342 79.6568 38.1549 80.2431 38.1531ZM80.2431 30.045C81.9865 30.045 83.2415 31.5929 83.2415 33.3618C83.2415 35.205 81.9865 36.7537 80.2431 36.7537C78.4304 36.7537 77.1753 35.2058 77.1753 33.3618C77.1753 31.5929 78.4304 30.045 80.2431 30.045ZM87.0059 28.94H85.5418V34.0999C85.5418 36.4585 86.3788 38.1531 88.8881 38.1531C91.3974 38.1531 92.3021 36.4585 92.3021 34.0999V28.94H90.8396V33.8781C90.8396 35.426 90.6992 36.7528 88.8881 36.7528C87.1447 36.7528 87.0059 35.426 87.0059 33.8781V28.94ZM95.3005 28.94H93.8364V37.8579H95.3005V33.361C95.3005 32.2559 95.3699 30.0442 96.9729 30.0442C97.3232 30.0442 97.5306 30.266 97.8098 30.4879L98.5064 29.0859C98.0883 28.8657 97.671 28.6439 97.1819 28.6439C96.2755 28.6439 95.8574 29.1601 95.2997 29.8974V28.94H95.3005ZM104.991 28.94H103.527V37.8579H104.991V33.215C104.991 31.8882 105.201 30.045 106.873 30.045C108.268 30.045 108.406 31.6663 108.406 32.773V37.8579H109.8V33.1417C109.8 31.7397 110.01 30.045 111.682 30.045C113.147 30.045 113.216 31.5204 113.216 32.6979V37.8579H114.68V32.4044C114.68 30.5613 114.122 28.6447 111.961 28.6447C110.916 28.6447 109.94 29.161 109.382 30.1201C108.964 29.2352 108.058 28.6447 107.082 28.6447C106.176 28.6447 105.479 29.161 104.99 29.8982V28.94H104.991ZM120.118 38.1531C122.557 38.1531 124.58 36.0147 124.58 33.4369C124.58 30.784 122.627 28.6456 120.118 28.6456C117.608 28.6456 115.657 30.784 115.657 33.4369C115.655 34.0568 115.769 34.6709 115.992 35.244C116.216 35.817 116.545 36.3377 116.959 36.776C117.374 37.2144 117.866 37.5617 118.408 37.798C118.95 38.0344 119.531 38.155 120.118 38.1531ZM120.118 30.045C121.93 30.045 123.116 31.5929 123.116 33.3618C123.116 35.205 121.93 36.7537 120.118 36.7537C118.306 36.7537 117.121 35.2058 117.121 33.3618C117.121 31.5929 118.306 30.045 120.118 30.045ZM127.019 28.94H125.557V37.8579H127.019V33.6562C127.019 32.0349 127.16 30.045 129.111 30.045C130.783 30.045 130.924 31.3719 130.924 32.8464V37.8579H132.386V32.5512C132.386 30.4879 131.83 28.6447 129.459 28.6447C128.414 28.6447 127.646 29.161 127.019 29.9716V28.94ZM141.52 33.7296C141.659 31.0767 140.194 28.6447 137.477 28.6447C134.827 28.6447 133.364 30.8565 133.364 33.5094C133.364 36.089 134.967 38.1523 137.477 38.1523C139.219 38.1523 140.614 37.194 141.449 35.6453L140.194 34.8355C139.638 35.9405 138.87 36.752 137.616 36.752C135.943 36.752 134.827 35.35 134.827 33.7287H141.52V33.7296ZM134.896 32.4044C135.106 31.1509 136.223 30.0442 137.477 30.0442C138.731 30.0442 139.777 31.1509 139.986 32.4044H134.896Z" fill="#616BA9"/>
<path fill-rule="evenodd" clip-rule="evenodd" d="M145.006 37.0456L142.218 42.9402H143.89L150.165 28.9375H148.491L145.772 35.3484L142.775 28.9375H141.102L145.006 37.0456ZM149.747 36.0123C149.189 36.0123 148.7 36.456 148.7 37.0456C148.7 37.6335 149.188 38.1506 149.747 38.1506C150.305 38.1506 150.722 37.6344 150.722 37.0456C150.726 36.9091 150.703 36.7732 150.655 36.6463C150.607 36.5194 150.536 36.4041 150.444 36.3074C150.353 36.2108 150.244 36.1348 150.124 36.084C150.004 36.0333 149.876 36.0089 149.747 36.0123Z" fill="#616BA9"/>
</svg>
