<svg width="108" height="90" viewBox="0 0 108 90" fill="none" xmlns="http://www.w3.org/2000/svg">
<path d="M85.0471 61.8986C74.4033 78.4456 27.1877 75.7519 14.2075 57.8901C1.22728 39.9962 22.5149 6.93422 46.1064 8.24901C69.7304 9.59586 95.6584 45.3515 85.0471 61.8986Z" fill="#F1F4F8"/>
<g clip-path="url(#clip0_41_2684)">
<path d="M39.1214 50.5895L18.4233 56.1217C17.8778 56.2675 17.5541 56.8271 17.7004 57.3717L25.9043 87.913C26.0506 88.4575 26.6114 88.7808 27.1568 88.635L47.855 83.1027C48.4005 82.9569 48.7242 82.3973 48.5779 81.8528L40.374 51.3114C40.2277 50.7669 39.6669 50.4437 39.1214 50.5895Z" stroke="black" stroke-miterlimit="10" stroke-linecap="round"/>
<path d="M16.8271 60.1206L20.1186 59.2409" stroke="black" stroke-miterlimit="10" stroke-linecap="round"/>
<path d="M17.6973 63.5186L20.9887 62.6388" stroke="black" stroke-miterlimit="10" stroke-linecap="round"/>
<path d="M18.6074 66.9058L21.8989 66.026" stroke="black" stroke-miterlimit="10" stroke-linecap="round"/>
<path d="M19.5176 70.2935L22.809 69.4137" stroke="black" stroke-miterlimit="10" stroke-linecap="round"/>
<path d="M20.3174 73.9858L23.6088 73.1061" stroke="black" stroke-miterlimit="10" stroke-linecap="round"/>
<path d="M21.2275 77.3735L24.519 76.4938" stroke="black" stroke-miterlimit="10" stroke-linecap="round"/>
<path d="M22.1924 80.9658L25.4838 80.0861" stroke="black" stroke-miterlimit="10" stroke-linecap="round"/>
<path d="M23.1787 84.333L26.4702 83.4533" stroke="black" stroke-miterlimit="10" stroke-linecap="round"/>
<path d="M40.1158 67.9648C39.6954 67.7244 39.3039 67.4369 38.9488 67.1079C38.481 66.6742 38.2774 66.3522 38.0589 66.4106C37.8404 66.469 37.8392 66.8223 37.6377 67.4583C37.5071 67.868 37.3394 68.265 37.1365 68.6443L32.7422 52.2852L35.3644 51.5843L40.1158 67.9648Z" fill="#1F7AAD" stroke="black" stroke-miterlimit="10"/>
</g>
<path d="M82.2209 13.8502L45.6204 21.6857L65.8019 42.2181L93.7223 49.3883L82.2209 13.8502Z" fill="#1F7AAD" stroke="black" stroke-miterlimit="10"/>
<path d="M51.3857 27.5522L40.4155 46.506L40.6589 46.6462" stroke="black" stroke-miterlimit="10" stroke-linecap="round"/>
<path d="M86.6627 47.5763L75.5653 66.7498L75.0149 66.4329" stroke="black" stroke-miterlimit="10" stroke-linecap="round"/>
<path d="M40.6585 46.6468C45.4254 45.4146 53.1553 47.145 60.7448 51.5159C68.3344 55.8868 73.6907 61.7182 75.0153 66.4334" stroke="black" stroke-miterlimit="10" stroke-linecap="round"/>
<path d="M93.7217 49.3892L82.596 69.8277" stroke="black" stroke-miterlimit="10" stroke-linecap="round"/>
<path d="M82.5973 69.827L80.1028 72.9206" stroke="black" stroke-miterlimit="10" stroke-linecap="round"/>
<path d="M82.8066 69.4297L81.8362 73.1246" stroke="black" stroke-miterlimit="10" stroke-linecap="round"/>
<path d="M28.7782 20.2358C30.0208 22.3827 32.7729 23.1183 34.9251 21.8788C37.0774 20.6393 37.8148 17.8941 36.5722 15.7472C35.3296 13.6003 32.5775 12.8647 30.4253 14.1042C28.273 15.3437 27.5356 18.0889 28.7782 20.2358Z" fill="#1F7AAD" stroke="black" stroke-miterlimit="10"/>
<path d="M31.5989 18.4598C31.8875 18.9585 32.5268 19.1294 33.0268 18.8414C33.5267 18.5535 33.698 17.9158 33.4093 17.4171C33.1207 16.9184 32.4814 16.7476 31.9815 17.0355C31.4816 17.3234 31.3103 17.9611 31.5989 18.4598Z" fill="white" stroke="black" stroke-miterlimit="10"/>
<path d="M36.2711 14.9351L38.7441 13.5108C38.8371 13.4572 38.9398 13.4225 39.0462 13.4085C39.1526 13.3945 39.2608 13.4016 39.3645 13.4293C39.4682 13.457 39.5654 13.5048 39.6506 13.57C39.7358 13.6352 39.8072 13.7165 39.8609 13.8093C39.9146 13.902 39.9494 14.0044 39.9635 14.1106C39.9775 14.2168 39.9704 14.3246 39.9426 14.4281C39.9148 14.5315 39.8669 14.6285 39.8015 14.7135C39.7361 14.7984 39.6547 14.8697 39.5617 14.9233L37.1004 16.3407" stroke="black" stroke-miterlimit="10" stroke-linecap="round"/>
<path d="M18.1786 20.0438L2.54391 21.7849L1.21399 20.8774L2.31649 19.7519L18.5237 17.946L18.5257 17.9449" stroke="black" stroke-miterlimit="10" stroke-linecap="round"/>
<path d="M28.2096 16.6844L20.2925 17.5665" stroke="black" stroke-miterlimit="10" stroke-linecap="round"/>
<path d="M28.026 18.7634L19.7399 19.685" stroke="black" stroke-miterlimit="10" stroke-linecap="round"/>
<path d="M26.198 30.111L31.4717 22.481" stroke="black" stroke-miterlimit="10" stroke-linecap="round"/>
<path d="M24.3528 29.1825L29.6152 21.5693" stroke="black" stroke-miterlimit="10" stroke-linecap="round"/>
<path d="M25.5118 31.1052L17.0247 43.3874L15.3176 44.1633L15.3378 42.2264L23.7247 30.0938" stroke="black" stroke-miterlimit="10" stroke-linecap="round"/>
<path d="M32.5247 30.2257L31.8085 28.9883C31.6548 29.1 31.4951 29.2034 31.3302 29.2979C28.0091 31.2105 23.367 29.3961 20.9622 25.2412C18.5574 21.0864 19.3032 16.1689 22.6302 14.2528C22.7947 14.1576 22.9642 14.0713 23.1381 13.9944L22.4207 12.755C22.2491 12.8355 22.0808 12.9219 21.9152 13.0173C18.0478 15.2446 17.1821 20.9682 19.9809 25.8037C22.7796 30.6393 28.1768 32.7586 32.0501 30.5279C32.2098 30.4359 32.369 30.3338 32.5247 30.2257Z" fill="#1F7AAD" stroke="black" stroke-width="0.5" stroke-miterlimit="10"/>
<defs>
<clipPath id="clip0_41_2684">
<rect width="25.4804" height="33.9007" fill="white" transform="matrix(0.966086 -0.258219 0.259421 0.965764 15.5723 56.7578)"/>
</clipPath>
</defs>
</svg>
