<svg width="104" height="88" viewBox="0 0 104 88" fill="none" xmlns="http://www.w3.org/2000/svg">
<path d="M85.0471 59.8986C74.4033 76.4456 27.1877 73.7519 14.2075 55.8901C1.22728 37.9962 22.5149 4.93422 46.1064 6.24901C69.7304 7.59586 95.6584 43.3515 85.0471 59.8986Z" fill="#F1F4F8"/>
<g clip-path="url(#clip0_61_1175)">
<path d="M39.1214 48.5895L18.4233 54.1217C17.8778 54.2675 17.5541 54.8271 17.7004 55.3717L25.9043 85.913C26.0506 86.4575 26.6114 86.7808 27.1568 86.635L47.855 81.1027C48.4005 80.9569 48.7242 80.3973 48.5779 79.8528L40.374 49.3114C40.2277 48.7669 39.6669 48.4437 39.1214 48.5895Z" stroke="black" stroke-miterlimit="10" stroke-linecap="round"/>
<path d="M16.8271 58.1206L20.1186 57.2409" stroke="black" stroke-miterlimit="10" stroke-linecap="round"/>
<path d="M17.6973 61.5186L20.9887 60.6388" stroke="black" stroke-miterlimit="10" stroke-linecap="round"/>
<path d="M18.6074 64.9058L21.8989 64.026" stroke="black" stroke-miterlimit="10" stroke-linecap="round"/>
<path d="M19.5176 68.2935L22.809 67.4137" stroke="black" stroke-miterlimit="10" stroke-linecap="round"/>
<path d="M20.3174 71.9858L23.6088 71.1061" stroke="black" stroke-miterlimit="10" stroke-linecap="round"/>
<path d="M21.2275 75.3735L24.519 74.4938" stroke="black" stroke-miterlimit="10" stroke-linecap="round"/>
<path d="M22.1924 78.9658L25.4838 78.0861" stroke="black" stroke-miterlimit="10" stroke-linecap="round"/>
<path d="M23.1787 82.333L26.4702 81.4533" stroke="black" stroke-miterlimit="10" stroke-linecap="round"/>
<path d="M40.1158 65.9648C39.6954 65.7244 39.3039 65.4369 38.9488 65.1079C38.481 64.6742 38.2774 64.3522 38.0589 64.4106C37.8404 64.469 37.8392 64.8223 37.6377 65.4583C37.5071 65.868 37.3394 66.265 37.1365 66.6443L32.7422 50.2852L35.3644 49.5843L40.1158 65.9648Z" fill="#1F7AAD" stroke="black" stroke-miterlimit="10"/>
</g>
<path d="M78.4553 23.9127L46.9418 22.9591L68.6908 40.7833L95.0437 50.6617L78.4553 23.9127Z" fill="#1F7AAD" stroke="black" stroke-miterlimit="10"/>
<path d="M53.1553 28.0518L46.6312 39.3237L46.8746 39.4639" stroke="black" stroke-miterlimit="10" stroke-linecap="round"/>
<path d="M88.3805 48.1646L81.7807 59.5673L81.2303 59.2503" stroke="black" stroke-miterlimit="10" stroke-linecap="round"/>
<path d="M46.8741 39.464C50.9413 39.4409 58.1924 41.9985 65.782 46.3694C73.3715 50.7403 79.211 55.7368 81.231 59.2507" stroke="black" stroke-miterlimit="10" stroke-linecap="round"/>
<path d="M95.043 50.6621L88.6404 62.9403" stroke="black" stroke-miterlimit="10" stroke-linecap="round"/>
<path d="M88.6422 62.9403L86.9448 64.6568" stroke="black" stroke-miterlimit="10" stroke-linecap="round"/>
<path d="M88.7598 62.7002L88.5378 65.1021" stroke="black" stroke-miterlimit="10" stroke-linecap="round"/>
<path d="M28.7782 18.2358C30.0208 20.3827 32.7729 21.1183 34.9251 19.8788C37.0774 18.6393 37.8148 15.8941 36.5722 13.7472C35.3296 11.6003 32.5775 10.8647 30.4253 12.1042C28.273 13.3437 27.5356 16.0889 28.7782 18.2358Z" fill="#1F7AAD" stroke="black" stroke-miterlimit="10"/>
<path d="M31.5989 16.4598C31.8875 16.9585 32.5268 17.1294 33.0268 16.8414C33.5267 16.5535 33.698 15.9158 33.4093 15.4171C33.1207 14.9184 32.4814 14.7476 31.9815 15.0355C31.4816 15.3234 31.3103 15.9611 31.5989 16.4598Z" fill="white" stroke="black" stroke-miterlimit="10"/>
<path d="M36.2711 12.9351L38.7441 11.5108C38.8371 11.4572 38.9398 11.4225 39.0462 11.4085C39.1526 11.3945 39.2608 11.4016 39.3645 11.4293C39.4682 11.457 39.5654 11.5048 39.6506 11.57C39.7358 11.6352 39.8072 11.7165 39.8609 11.8093C39.9146 11.902 39.9494 12.0044 39.9635 12.1106C39.9775 12.2168 39.9704 12.3246 39.9426 12.4281C39.9148 12.5315 39.8669 12.6285 39.8015 12.7135C39.7361 12.7984 39.6547 12.8697 39.5617 12.9233L37.1004 14.3407" stroke="black" stroke-miterlimit="10" stroke-linecap="round"/>
<path d="M18.1786 18.0438L2.54391 19.7849L1.21399 18.8774L2.31649 17.7519L18.5237 15.946L18.5257 15.9449" stroke="black" stroke-miterlimit="10" stroke-linecap="round"/>
<path d="M28.2096 14.6844L20.2925 15.5665" stroke="black" stroke-miterlimit="10" stroke-linecap="round"/>
<path d="M28.026 16.7634L19.7399 17.685" stroke="black" stroke-miterlimit="10" stroke-linecap="round"/>
<path d="M26.198 28.111L31.4717 20.481" stroke="black" stroke-miterlimit="10" stroke-linecap="round"/>
<path d="M24.3528 27.1825L29.6152 19.5693" stroke="black" stroke-miterlimit="10" stroke-linecap="round"/>
<path d="M25.5118 29.1052L17.0247 41.3874L15.3176 42.1633L15.3378 40.2264L23.7247 28.0938" stroke="black" stroke-miterlimit="10" stroke-linecap="round"/>
<path d="M32.5247 28.2257L31.8085 26.9883C31.6548 27.1 31.4951 27.2034 31.3302 27.2979C28.0091 29.2105 23.367 27.3961 20.9622 23.2412C18.5574 19.0864 19.3032 14.1689 22.6302 12.2528C22.7947 12.1576 22.9642 12.0713 23.1381 11.9944L22.4207 10.755C22.2491 10.8355 22.0808 10.9219 21.9152 11.0173C18.0478 13.2446 17.1821 18.9682 19.9809 23.8037C22.7796 28.6393 28.1768 30.7586 32.0501 28.5279C32.2098 28.4359 32.369 28.3338 32.5247 28.2257Z" fill="#1F7AAD" stroke="black" stroke-width="0.5" stroke-miterlimit="10"/>
<defs>
<clipPath id="clip0_61_1175">
<rect width="25.4804" height="33.9007" fill="white" transform="matrix(0.966086 -0.258219 0.259421 0.965764 15.5723 54.7578)"/>
</clipPath>
</defs>
</svg>
