<svg width="147" height="46" viewBox="0 0 147 46" fill="none" xmlns="http://www.w3.org/2000/svg">
<path d="M0 8.62988H5.12575V20.6696H15.9363V8.62988H21.0686V38.1838H15.9363V25.8911H5.12575V38.1838H0V8.62988ZM37.3069 28.5576C37.3069 31.0316 35.4004 33.0448 33.061 33.0448C30.7206 33.0448 28.8152 31.0316 28.8152 28.5576V15.8336H23.9542V28.5576C23.9542 33.8659 28.0397 38.1838 33.061 38.1838C38.081 38.1838 42.1662 33.8659 42.1662 28.5576V15.8336H37.3069V28.5576ZM55.7363 15.9827C53.3251 15.9827 51.6419 16.7225 50.0165 18.4093V8.62988H45.1397V26.7539C45.1397 33.5378 49.7791 38.1838 54.9912 38.1838C60.7857 38.1838 65.8626 33.4549 65.8626 27.0835C65.8626 20.7929 61.1811 15.9827 55.7363 15.9827ZM55.8575 33.4139C52.553 33.4139 50.026 30.4961 50.026 27.0835C50.026 23.6703 52.553 20.7516 55.8575 20.7516C58.6575 20.7516 61.1859 23.6703 61.1859 27.0835C61.1859 30.4961 58.6575 33.4139 55.8575 33.4139ZM74.0534 17.2816C74.0534 14.6898 75.6869 13.8681 77.4751 13.8681C78.9147 13.8681 80.8198 15.0192 82.0631 16.4174L85.251 12.4708C83.6577 10.2099 80.4308 8.64719 77.7863 8.64719C72.4972 8.64719 68.6862 11.8953 68.6862 17.2816C68.6862 27.2717 80.3139 24.105 80.3139 29.6978C80.3139 31.4226 78.7201 32.9452 76.8934 32.9452C74.0147 32.9452 73.0809 31.4651 71.7593 29.9024L68.2199 33.7664C70.4767 36.6857 73.2756 38.1665 76.6203 38.1665C81.6364 38.1665 85.6808 34.8774 85.6808 29.7375C85.6808 18.6376 74.0534 22.0915 74.0534 17.2816ZM98.5193 15.6931C93.3077 15.6931 88.6678 20.3363 88.6678 27.1218V45.2925H93.5443V35.4666C95.17 37.1523 96.8523 37.8933 99.2644 37.8933C104.709 37.8933 109.391 33.0837 109.391 26.793C109.391 20.4207 104.313 15.6931 98.5193 15.6931ZM99.3859 33.125C96.0816 33.125 93.5544 30.2032 93.5544 26.793C93.5544 23.3798 96.0816 20.4611 99.3859 20.4611C102.185 20.4611 104.714 23.3798 104.714 26.793C104.714 30.2032 102.185 33.125 99.3859 33.125ZM145.288 33.4139C142.411 33.4139 141.595 32.0989 141.595 30.0836V21.1626H146.066V16.6408H141.595V10.6789L136.657 13.0218V31.1937C136.657 35.84 139.69 38.1838 143.849 38.1838C144.471 38.1838 145.327 38.1413 145.794 38.0195L147 33.3332C146.456 33.373 145.834 33.4139 145.288 33.4139Z" fill="#45535E"/>
<path d="M132.428 21.4267C131.493 19.7262 130.178 18.3629 128.534 17.3365C127.306 16.5804 126.032 16.1005 124.596 15.8943V10.491C126.032 9.84654 126.923 8.42012 126.923 6.75601C126.923 4.48782 125.202 2.64977 123.058 2.64977C120.913 2.64977 119.162 4.48782 119.162 6.75601C119.162 8.42012 120.002 9.84654 121.438 10.491V15.8968C120.289 16.0722 119.098 16.4508 118.01 17.0324C115.789 15.2487 108.505 9.39697 104.243 5.9792C104.344 5.59398 104.422 5.19693 104.422 4.77802C104.422 2.26576 102.498 0.229492 100.121 0.229492C97.7438 0.229492 95.8203 2.26576 95.8203 4.77802C95.8203 7.28997 97.7458 9.32685 100.123 9.32685C100.934 9.32685 101.684 9.07611 102.331 8.66387L103.23 9.38513L115.587 18.7979C114.934 19.432 114.325 20.1533 113.839 20.9626C112.852 22.6124 112.25 24.4277 112.25 26.4078V26.8209C112.25 28.2109 112.499 29.5232 112.925 30.756C113.3 31.8324 113.847 32.8111 114.526 33.6959L110.425 38.0423C109.831 37.8084 109.185 37.7604 108.566 37.904C107.946 38.0477 107.379 38.3768 106.932 38.8522C106.622 39.178 106.377 39.5654 106.21 39.9922C106.043 40.419 105.957 40.8765 105.959 41.3383C105.959 42.2772 106.305 43.1597 106.933 43.8236C107.241 44.1512 107.608 44.4109 108.011 44.5878C108.415 44.7647 108.848 44.8551 109.284 44.8539C109.721 44.855 110.154 44.7646 110.558 44.5877C110.962 44.4109 111.328 44.1512 111.636 43.8236C111.946 43.4978 112.191 43.1105 112.358 42.6839C112.525 42.2574 112.611 41.8 112.61 41.3383C112.61 40.975 112.557 40.6204 112.457 40.2835L116.695 35.8014C117.277 36.2258 117.904 36.5831 118.579 36.8912C119.91 37.4995 121.379 37.8702 122.986 37.8702H123.281C125.058 37.8702 126.735 37.4288 128.311 36.526C129.971 35.5719 131.271 34.2672 132.253 32.6016C133.24 30.9314 133.784 29.0861 133.784 27.0559V26.9545C133.784 24.9574 133.347 23.1148 132.428 21.4267ZM127.249 30.8288C126.098 32.1806 124.776 33.0132 123.281 33.0132H123.035C122.181 33.0132 121.345 32.7637 120.528 32.3099C119.606 31.8102 118.905 31.0975 118.332 30.195C117.739 29.3092 117.418 28.3421 117.418 27.3167V27.0052C117.418 25.9971 117.601 25.0412 118.062 24.1384C118.555 23.1515 119.221 22.3841 120.106 21.774C120.976 21.1681 121.904 20.8709 122.938 20.8709H123.035C123.972 20.8709 124.86 21.0664 125.698 21.5196C126.552 22.0029 127.249 22.6631 127.79 23.5316C128.315 24.4004 128.627 25.3375 128.728 26.3583C128.743 26.5705 128.751 26.7879 128.751 26.9955C128.751 28.3809 128.251 29.6641 127.249 30.8288Z" fill="#F8761F"/>
</svg>
