<svg width="146" height="36" viewBox="0 0 146 36" fill="none" xmlns="http://www.w3.org/2000/svg">
<g clip-path="url(#clip0_142_3011)">
<path d="M42.2266 26.6721C42.8008 26.6393 43.4242 26.6229 44.0969 26.6229C44.7695 26.6229 45.3848 26.6147 45.9426 26.5983C46.566 26.5983 47.1936 26.5942 47.8252 26.586C48.4569 26.5778 49.0844 26.5655 49.7078 26.5491C50.0852 26.4671 50.3682 26.3276 50.5569 26.1307C50.7455 25.9339 50.8399 25.7206 50.8399 25.4909C50.8399 25.2612 50.7538 25.0438 50.5815 24.8387C50.4092 24.6337 50.1508 24.4737 49.8063 24.3589C49.2321 24.3753 48.666 24.3876 48.1082 24.3958C47.5504 24.404 47.0008 24.4081 46.4594 24.4081C45.9508 24.4245 45.4463 24.4286 44.9459 24.4204C44.4455 24.4122 43.941 24.4245 43.4324 24.4573V21.5411C43.4324 20.5977 43.4406 19.6256 43.457 18.6248C43.457 17.6405 43.4611 16.6479 43.4693 15.6471C43.4775 14.6463 43.4817 13.6373 43.4817 12.6201C43.3668 12.3084 43.1986 12.0746 42.9772 11.9188C42.7557 11.7629 42.5055 11.685 42.2266 11.685C41.9477 11.685 41.7016 11.7711 41.4883 11.9434C41.275 12.1156 41.1273 12.3658 41.0453 12.694V15.9178C41.0453 16.9842 41.0371 18.0588 41.0207 19.1416C41.0207 20.2245 41.0166 21.2909 41.0084 22.3409C41.0002 23.3909 40.9961 24.4573 40.9961 25.5401C41.0781 26.2128 41.4883 26.5901 42.2266 26.6721ZM57.1043 26.4507C57.9082 26.4507 58.7039 26.3973 59.4914 26.2907C60.2789 26.1841 61.0172 26.0323 61.7063 25.8354C61.9852 25.6878 62.1903 25.5196 62.3215 25.3309C62.4528 25.1423 62.5184 24.9577 62.5184 24.7772C62.5184 24.4819 62.3912 24.2276 62.1369 24.0143C61.8826 23.801 61.5258 23.7108 61.0664 23.7436H61.0418C60.4348 23.9077 59.8031 24.0348 59.1469 24.1251C58.4906 24.2153 57.8262 24.2604 57.1535 24.2604C56.8418 24.2604 56.5424 24.2481 56.2553 24.2235C55.9682 24.1989 55.6688 24.1702 55.357 24.1374V20.3967C55.5375 20.4131 55.6811 20.4172 55.7877 20.409C55.8943 20.4008 56.0379 20.3967 56.2184 20.3967C56.9566 20.3967 57.6867 20.3762 58.4086 20.3352C59.1305 20.2942 59.8524 20.2327 60.5742 20.1506C60.9516 20.0686 61.2305 19.925 61.411 19.72C61.5914 19.5149 61.6817 19.2893 61.6817 19.0432C61.6817 18.7643 61.5545 18.5141 61.3002 18.2926C61.0459 18.0711 60.6891 17.9768 60.2297 18.0096C59.557 18.0752 58.8967 18.1244 58.2486 18.1573C57.6006 18.1901 56.9566 18.2065 56.3168 18.2065C56.1363 18.2065 55.9723 18.2106 55.8246 18.2188C55.677 18.227 55.5211 18.2229 55.357 18.2065V14.0967C56.0133 13.9983 56.6654 13.9408 57.3135 13.9244C57.9615 13.908 58.6219 13.8998 59.2945 13.8998C59.6719 13.8998 60.0451 13.8957 60.4143 13.8875C60.7834 13.8793 61.1321 13.867 61.4602 13.8506C61.8539 13.7686 62.1451 13.6209 62.3338 13.4076C62.5225 13.1943 62.6168 12.9647 62.6168 12.7186C62.6168 12.4725 62.4774 12.2428 62.1985 12.0295C61.9196 11.8162 61.575 11.7014 61.1649 11.685C60.8203 11.7014 60.4717 11.7137 60.119 11.7219C59.7662 11.7301 59.4094 11.7342 59.0485 11.7342C58.0477 11.7342 57.0592 11.7629 56.083 11.8203C55.1068 11.8777 54.1594 12.0459 53.2406 12.3248C52.9125 12.4561 52.6705 12.616 52.5146 12.8047C52.3588 12.9934 52.2808 13.1943 52.2808 13.4076C52.2808 13.6045 52.3342 13.7891 52.4408 13.9613C52.5474 14.1336 52.7156 14.2608 52.9453 14.3428V24.9495C52.9125 25.3925 53.1668 25.7616 53.7082 26.0569C54.7582 26.3194 55.8902 26.4507 57.1043 26.4507ZM75.9688 26.7952C76.2805 26.7952 76.5471 26.6927 76.7686 26.4876C76.9901 26.2825 77.1172 25.9749 77.15 25.5647C76.986 24.2194 76.6989 22.9069 76.2887 21.6272H76.584C76.9614 21.5452 77.2403 21.4016 77.4207 21.1965C77.6012 20.9915 77.6914 20.7741 77.6914 20.5444C77.6914 20.3147 77.6094 20.1014 77.4453 19.9045C77.2813 19.7077 77.027 19.5518 76.6824 19.437C76.502 19.437 76.3051 19.4411 76.0918 19.4493C75.8785 19.4575 75.6817 19.4616 75.5012 19.4616C75.3535 19.0842 75.1977 18.7028 75.0336 18.3172C74.8696 17.9317 74.7137 17.583 74.566 17.2713C74.3363 16.7955 74.0902 16.2951 73.8277 15.7701C73.5652 15.2451 73.2822 14.7242 72.9787 14.2074C72.6752 13.6906 72.3471 13.1902 71.9943 12.7063C71.6416 12.2223 71.2602 11.7834 70.85 11.3897C70.5055 11.0779 70.1117 10.9959 69.6687 11.1436H69.6934C69.2504 11.242 68.9633 11.4635 68.832 11.808L68.8566 11.7834C67.7082 13.9654 66.7566 16.1721 66.0019 18.4034C65.2472 20.6346 64.6074 22.9233 64.0824 25.2694C63.984 25.7124 64.0619 26.0692 64.3162 26.3399C64.5705 26.6106 64.8699 26.746 65.2144 26.746C65.4605 26.746 65.6902 26.6639 65.9035 26.4999C66.1168 26.3358 66.289 26.0733 66.4203 25.7124C66.568 24.9905 66.7279 24.3137 66.9002 23.6821C67.0724 23.0504 67.257 22.3901 67.4539 21.701H67.5031C68.5531 21.701 69.5949 21.6928 70.6285 21.6764C71.6621 21.66 72.6957 21.6518 73.7293 21.6518C73.9918 22.3901 74.2092 23.112 74.3815 23.8174C74.5537 24.5229 74.6809 25.2448 74.7629 25.9831C74.8942 26.262 75.0705 26.4671 75.292 26.5983C75.5135 26.7296 75.7391 26.7952 75.9688 26.7952ZM68.1676 19.5108C68.4957 18.5756 68.8279 17.6774 69.1643 16.816C69.5006 15.9547 69.8656 15.1057 70.2594 14.269C70.4563 14.5479 70.6572 14.8678 70.8623 15.2287C71.0674 15.5897 71.2684 15.9506 71.4652 16.3116L71.7113 16.7545C71.9246 17.2303 72.1379 17.6815 72.3512 18.108C72.5645 18.5346 72.7695 18.9858 72.9664 19.4616C72.1297 19.4616 71.3299 19.4698 70.567 19.4862C69.8041 19.5026 69.0043 19.5108 68.1676 19.5108ZM89.6406 26.9675C89.9524 26.9675 90.219 26.8731 90.4405 26.6845C90.6619 26.4958 90.7727 26.2456 90.7727 25.9339C90.7727 25.7042 90.666 25.4417 90.4528 25.1464L86.5399 20.8151C87.0813 20.569 87.5652 20.2614 87.9918 19.8922C88.4184 19.5231 88.7834 19.117 89.0869 18.6741C89.3904 18.2311 89.6242 17.7594 89.7883 17.259C89.9524 16.7586 90.0344 16.2459 90.0344 15.7209C90.0344 15.0647 89.8867 14.4248 89.5914 13.8014C89.2961 13.1779 88.8039 12.5955 88.1149 12.0541C87.557 11.5947 86.9418 11.2666 86.2691 11.0697C85.5965 10.8729 84.8746 10.7744 84.1035 10.7744C83.1848 10.7744 82.2824 10.9139 81.3965 11.1928C80.5105 11.4717 79.6984 11.849 78.9601 12.3248C78.6648 12.5709 78.5172 12.8744 78.5172 13.2354C78.5172 13.4651 78.5992 13.6701 78.7633 13.8506C78.9273 14.0311 79.1242 14.1623 79.3539 14.2444V25.7616C79.4031 26.1389 79.5467 26.4219 79.7845 26.6106C80.0224 26.7993 80.2808 26.8936 80.5597 26.8936C80.8551 26.8936 81.1299 26.7952 81.3842 26.5983C81.6385 26.4014 81.7738 26.0897 81.7902 25.6632V21.7749C82.5449 21.7585 83.3078 21.6846 84.0789 21.5534C84.2101 21.7174 84.4932 22.0374 84.9279 22.5131C85.3627 22.9889 85.8344 23.4975 86.343 24.0389C86.8516 24.5803 87.3191 25.0889 87.7457 25.5647C88.1723 26.0405 88.4594 26.3686 88.607 26.5491C88.7547 26.7132 88.9188 26.8239 89.0992 26.8813C89.2797 26.9387 89.4602 26.9675 89.6406 26.9675ZM81.7902 19.5846V13.3584C82.4793 13.0959 83.2176 12.9647 84.0051 12.9647C84.4644 12.9647 84.9115 13.018 85.3463 13.1246C85.7811 13.2313 86.1871 13.424 86.5645 13.7029C86.9582 13.9819 87.2371 14.2895 87.4012 14.6258C87.5652 14.9621 87.6473 15.319 87.6473 15.6963C87.6473 16.0244 87.5816 16.3608 87.4504 16.7053C87.3191 17.0498 87.1387 17.3698 86.909 17.6651C86.6793 17.9604 86.4168 18.227 86.1215 18.4649C85.8262 18.7028 85.5063 18.8791 85.1617 18.994C84.6039 19.2237 84.042 19.3713 83.476 19.437C82.91 19.5026 82.348 19.5518 81.7902 19.5846ZM94.0593 26.8936C94.3383 26.8936 94.6049 26.7952 94.8592 26.5983C95.1135 26.4014 95.2488 26.0897 95.2652 25.6632C95.2652 24.5803 95.2611 23.5796 95.2529 22.6608C95.2447 21.742 95.2406 20.8561 95.2406 20.003V15.8686C95.8969 16.6889 96.5449 17.5051 97.1848 18.3172C97.8246 19.1293 98.4521 19.9456 99.0674 20.7659C99.6826 21.5862 100.281 22.4311 100.864 23.3006C101.446 24.1702 102.016 25.0725 102.574 26.0077L102.746 26.303C103.091 26.6475 103.452 26.8198 103.829 26.8198C104.059 26.8198 104.28 26.7419 104.494 26.586C104.707 26.4302 104.871 26.1964 104.986 25.8846V25.7739C104.986 25.7329 104.994 25.6714 105.011 25.5893C105.142 23.2596 105.224 20.9997 105.257 18.8094C105.289 16.6192 105.306 14.3674 105.306 12.0541C105.224 11.726 105.064 11.4799 104.826 11.3158C104.588 11.1518 104.338 11.0697 104.075 11.0697C103.796 11.0697 103.546 11.1559 103.325 11.3281C103.103 11.5004 102.952 11.767 102.87 12.1279V12.1525C102.87 13.8424 102.857 15.4543 102.833 16.9883C102.808 18.5223 102.771 20.1178 102.722 21.7749C101.639 20.1342 100.515 18.5879 99.3504 17.136C98.1855 15.684 96.9715 14.2033 95.7082 12.694L94.9453 11.808C94.5679 11.5619 94.2562 11.4389 94.0101 11.4389C93.7148 11.4389 93.4605 11.525 93.2472 11.6973C93.034 11.8695 92.8863 12.1197 92.8043 12.4479V19.117C92.8043 20.2491 92.8084 21.3688 92.8166 22.4762C92.8248 23.5837 92.8289 24.6788 92.8289 25.7616C92.8781 26.1389 93.0216 26.4219 93.2595 26.6106C93.4974 26.7993 93.764 26.8936 94.0593 26.8936ZM113.121 26.4014C113.432 26.4014 113.736 26.3932 114.031 26.3768C114.425 26.2948 114.716 26.1471 114.905 25.9339C115.094 25.7206 115.188 25.4991 115.188 25.2694C115.188 24.9905 115.061 24.7362 114.806 24.5065C114.552 24.2768 114.187 24.1784 113.711 24.2112H113.613C113.432 24.2276 113.277 24.2399 113.145 24.2481C113.014 24.2563 112.858 24.2604 112.678 24.2604V13.826H113.982C114.359 13.744 114.642 13.6004 114.831 13.3953C115.02 13.1902 115.114 12.9729 115.114 12.7432C115.114 12.5299 115.028 12.3207 114.856 12.1156C114.683 11.9106 114.425 11.7506 114.08 11.6357H108.986C108.56 11.6686 108.24 11.7875 108.027 11.9926C107.813 12.1977 107.707 12.4315 107.707 12.694C107.707 12.9565 107.805 13.1943 108.002 13.4076C108.199 13.6209 108.502 13.7604 108.912 13.826H110.241V24.2112C110.012 24.1948 109.811 24.1907 109.638 24.1989C109.466 24.2071 109.257 24.2112 109.011 24.2112C108.584 24.244 108.264 24.363 108.051 24.568C107.838 24.7731 107.731 25.0151 107.731 25.294C107.731 25.5401 107.83 25.7698 108.027 25.9831C108.223 26.1964 108.527 26.3358 108.937 26.4014H113.121ZM118.573 26.8936C118.852 26.8936 119.119 26.7952 119.373 26.5983C119.627 26.4014 119.762 26.0897 119.779 25.6632C119.779 24.5803 119.775 23.5796 119.767 22.6608C119.758 21.742 119.754 20.8561 119.754 20.003V15.8686C120.411 16.6889 121.059 17.5051 121.698 18.3172C122.338 19.1293 122.966 19.9456 123.581 20.7659C124.196 21.5862 124.795 22.4311 125.378 23.3006C125.96 24.1702 126.53 25.0725 127.088 26.0077L127.26 26.303C127.605 26.6475 127.966 26.8198 128.343 26.8198C128.573 26.8198 128.794 26.7419 129.007 26.586C129.221 26.4302 129.385 26.1964 129.5 25.8846V25.7739C129.5 25.7329 129.508 25.6714 129.524 25.5893C129.655 23.2596 129.737 20.9997 129.77 18.8094C129.803 16.6192 129.82 14.3674 129.82 12.0541C129.737 11.726 129.578 11.4799 129.34 11.3158C129.102 11.1518 128.852 11.0697 128.589 11.0697C128.31 11.0697 128.06 11.1559 127.838 11.3281C127.617 11.5004 127.465 11.767 127.383 12.1279V12.1525C127.383 13.8424 127.371 15.4543 127.346 16.9883C127.322 18.5223 127.285 20.1178 127.236 21.7749C126.153 20.1342 125.029 18.5879 123.864 17.136C122.699 15.684 121.485 14.2033 120.222 12.694L119.459 11.808C119.082 11.5619 118.77 11.4389 118.524 11.4389C118.228 11.4389 117.974 11.525 117.761 11.6973C117.548 11.8695 117.4 12.1197 117.318 12.4479V19.117C117.318 20.2491 117.322 21.3688 117.33 22.4762C117.338 23.5837 117.343 24.6788 117.343 25.7616C117.392 26.1389 117.535 26.4219 117.773 26.6106C118.011 26.7993 118.278 26.8936 118.573 26.8936ZM139.086 26.9675C139.857 26.9675 140.604 26.8485 141.326 26.6106C142.048 26.3727 142.671 25.9913 143.196 25.4663L143.393 25.294C143.606 25.0971 143.811 24.8757 144.008 24.6296C144.205 24.3835 144.304 24.1046 144.304 23.7928V20.1998C144.566 20.085 144.755 19.9415 144.87 19.7692C144.984 19.5969 145.042 19.4123 145.042 19.2155C145.042 18.9858 144.96 18.7684 144.796 18.5633C144.632 18.3582 144.361 18.2147 143.984 18.1327L143.806 18.1331C143.608 18.1345 143.302 18.1384 142.888 18.145C142.372 18.1532 141.81 18.1573 141.203 18.1573H138.496C138.036 18.1573 137.7 18.2762 137.487 18.5141C137.273 18.752 137.167 19.0022 137.167 19.2647C137.167 19.5272 137.265 19.7569 137.462 19.9538C137.659 20.1506 137.971 20.2819 138.397 20.3475H140.132C140.715 20.3475 141.293 20.3393 141.867 20.3229V23.5467C141.441 23.9733 140.973 24.2891 140.464 24.4942C139.956 24.6993 139.439 24.8018 138.914 24.8018C138.291 24.8018 137.692 24.6583 137.118 24.3712C136.543 24.084 136.039 23.6944 135.604 23.2022C135.169 22.71 134.821 22.1276 134.558 21.4549C134.296 20.7823 134.164 20.0604 134.164 19.2893C134.164 18.3541 134.324 17.5707 134.644 16.9391C134.964 16.3074 135.378 15.7783 135.887 15.3518C136.396 14.9252 136.962 14.5807 137.585 14.3182C138.209 14.0557 138.832 13.826 139.455 13.6291C139.603 13.5799 139.747 13.5471 139.886 13.5307C140.026 13.5143 140.161 13.5061 140.292 13.5061C140.505 13.5061 140.735 13.5471 140.981 13.6291C141.227 13.7111 141.473 13.7932 141.72 13.8752C141.916 13.9572 142.105 14.0188 142.286 14.0598C142.466 14.1008 142.638 14.1213 142.802 14.1213C143.13 14.1213 143.405 14.0188 143.627 13.8137C143.848 13.6086 143.959 13.3666 143.959 13.0877C143.959 12.7596 143.82 12.4848 143.541 12.2633C143.262 12.0418 142.929 11.8654 142.544 11.7342C142.158 11.6029 141.756 11.5086 141.338 11.4512C140.92 11.3938 140.571 11.365 140.292 11.365C139.308 11.365 138.348 11.5537 137.413 11.9311C136.478 12.3084 135.567 12.776 134.681 13.3338C134.205 13.6619 133.783 14.0721 133.414 14.5643C133.045 15.0565 132.737 15.5733 132.491 16.1147C132.245 16.6561 132.06 17.1975 131.937 17.7389C131.814 18.2803 131.753 18.7807 131.753 19.2401C131.753 20.0604 131.904 20.9217 132.208 21.8241C132.511 22.7264 132.971 23.559 133.586 24.3219C134.201 25.0848 134.964 25.7165 135.875 26.2169C136.785 26.7173 137.856 26.9675 139.086 26.9675Z" fill="black"/>
<path opacity="0.290248" d="M24.4497 0.796312L1.78311 9.04628C0.818279 9.39745 0.320811 10.4643 0.671979 11.4291L8.92195 34.0957C9.27312 35.0605 10.3399 35.558 11.3048 35.2068L33.9714 26.9569C34.9362 26.6057 35.4337 25.5389 35.0825 24.574L26.8325 1.90744C26.4814 0.942613 25.4145 0.445144 24.4497 0.796312Z" fill="#1F7AAD"/>
<path opacity="0.290248" d="M27.3376 2.199L3.5828 6.38762C2.57165 6.56591 1.89649 7.53015 2.07478 8.5413L6.2634 32.2961C6.44169 33.3073 7.40593 33.9825 8.41707 33.8042L32.1719 29.6155C33.1831 29.4372 33.8582 28.473 33.6799 27.4619L29.4913 3.70702C29.313 2.69587 28.3488 2.02071 27.3376 2.199Z" fill="#1F7AAD"/>
<path d="M29.9374 4.08203H5.81612C4.78937 4.08203 3.95703 4.91437 3.95703 5.94112V30.0624C3.95703 31.0892 4.78937 31.9215 5.81612 31.9215H29.9374C30.9642 31.9215 31.7965 31.0892 31.7965 30.0624V5.94112C31.7965 4.91437 30.9642 4.08203 29.9374 4.08203Z" fill="#1F7AAD"/>
<path d="M16.8251 26.4487C17.7657 26.4487 18.6966 26.3863 19.618 26.2615C20.5394 26.1368 21.4032 25.9592 22.2094 25.7289C22.5357 25.5561 22.7757 25.3594 22.9292 25.1386C23.0828 24.9179 23.1596 24.7019 23.1596 24.4908C23.1596 24.1453 23.0108 23.8477 22.7133 23.5982C22.4157 23.3486 21.9982 23.2431 21.4608 23.2815H21.432C20.7218 23.4734 19.9827 23.6222 19.2149 23.7278C18.4471 23.8333 17.6697 23.8861 16.8827 23.8861C16.518 23.8861 16.1676 23.8717 15.8317 23.8429C15.4958 23.8141 15.1455 23.7805 14.7808 23.7422V19.3656C14.9919 19.3848 15.1599 19.3896 15.2847 19.38C15.4094 19.3704 15.5774 19.3656 15.7885 19.3656C16.6523 19.3656 17.5065 19.3416 18.3511 19.2936C19.1957 19.2456 20.0403 19.1737 20.8849 19.0777C21.3264 18.9817 21.6527 18.8137 21.8639 18.5738C22.075 18.3339 22.1806 18.0699 22.1806 17.782C22.1806 17.4557 22.0318 17.1629 21.7343 16.9038C21.4368 16.6447 21.0193 16.5343 20.4818 16.5727C19.6948 16.6495 18.9222 16.707 18.164 16.7454C17.4057 16.7838 16.6523 16.803 15.9037 16.803C15.6926 16.803 15.5006 16.8078 15.3278 16.8174C15.1551 16.827 14.9727 16.8222 14.7808 16.803V11.9946C15.5486 11.8794 16.3116 11.8122 17.0698 11.793C17.828 11.7738 18.6007 11.7642 19.3877 11.7642C19.8292 11.7642 20.2659 11.7594 20.6978 11.7498C21.1297 11.7402 21.5376 11.7258 21.9215 11.7066C22.3822 11.6107 22.7229 11.4379 22.9436 11.1884C23.1644 10.9388 23.2747 10.6701 23.2747 10.3822C23.2747 10.0942 23.1116 9.82549 22.7853 9.57595C22.4589 9.32641 22.0558 9.19205 21.5759 9.17285C21.1728 9.19205 20.7649 9.20644 20.3522 9.21604C19.9395 9.22564 19.522 9.23044 19.0997 9.23044C17.9288 9.23044 16.7723 9.26403 15.6302 9.33121C14.488 9.3984 13.3795 9.59515 12.3046 9.92147C11.9207 10.075 11.6375 10.2622 11.4552 10.4829C11.2728 10.7037 11.1816 10.9388 11.1816 11.1884C11.1816 11.4187 11.244 11.6347 11.3688 11.8362C11.4936 12.0378 11.6903 12.1865 11.9591 12.2825V24.6923C11.9207 25.2106 12.2182 25.6425 12.8516 25.988C14.0801 26.2951 15.4046 26.4487 16.8251 26.4487Z" fill="white"/>
</g>
<defs>
<clipPath id="clip0_142_3011">
<rect width="145.241" height="36" fill="white"/>
</clipPath>
</defs>
</svg>
