<svg width="95" height="83" viewBox="0 0 95 83" fill="none" xmlns="http://www.w3.org/2000/svg">
<path d="M16.2933 11.2763C30.8677 -1.95826 75.7756 12.8329 83.679 33.4363C91.5741 54.0706 62.4335 80.5089 39.9869 73.1485C17.5174 65.7487 1.75014 24.5193 16.2933 11.2763Z" fill="#F1F4F8"/>
<path d="M7.72933 55.9237L7.72363 55.918" stroke="black" stroke-miterlimit="10" stroke-linecap="round"/>
<path d="M40.9293 52.084C40.9293 52.4553 40.9293 52.8198 40.8921 53.1843C40.6197 57.0397 38.9105 60.6539 36.1007 63.3153C33.2909 65.9768 29.5842 67.4929 25.7101 67.5651H25.4055C23.1473 67.5657 20.9162 67.0748 18.8677 66.1267C16.8193 65.1786 15.0029 63.7962 13.5452 62.0758C12.0876 60.3555 11.0237 58.3386 10.428 56.1659C9.83217 53.9932 9.71878 51.7171 10.0957 49.4962C10.4726 47.2753 11.3307 45.1631 12.6102 43.3071C13.8898 41.4511 15.5598 39.8958 17.5039 38.7499C19.4481 37.6039 21.6194 36.8948 23.8666 36.6721C26.1137 36.4493 28.3825 36.7183 30.5147 37.4602V37.4602C33.5573 38.5185 36.1945 40.4948 38.0606 43.1151C39.9267 45.7354 40.9292 48.8699 40.9293 52.084Z" stroke="black" stroke-miterlimit="10" stroke-linecap="round"/>
<path d="M40.9302 52.0842C40.9302 52.4554 40.9302 52.8199 40.893 53.1844C40.761 53.1844 40.6257 53.1574 40.4836 53.1372C39.6106 53.0089 38.6564 52.8908 38.0948 52.1821C37.6955 51.6792 37.6143 51.0751 37.4587 49.958C37.2556 48.4763 37.4316 47.8823 37.0628 47.6562C36.694 47.4301 36.1594 47.8351 35.371 48.2131C33.6149 49.0771 31.216 49.4922 30.7558 48.8476C30.2111 48.0848 32.3833 45.8371 32.028 45.5131C31.8589 45.3578 31.3276 45.8337 30.5968 46.1476C28.4178 47.0858 25.6703 46.0835 25.6602 45.5131C25.65 44.8685 28.9795 44.8043 29.1791 43.5185C29.2738 42.9177 28.5667 42.7388 28.1437 41.534C27.8054 40.5215 27.7445 39.1175 28.4618 38.2805C28.9727 37.6865 29.6866 37.6055 30.5156 37.4536C33.5593 38.5123 36.1972 40.4896 38.0634 43.1113C39.9296 45.7329 40.9315 48.8689 40.9302 52.0842Z" fill="#1F7AAD" stroke="black" stroke-miterlimit="10"/>
<path d="M39.6635 58.2198C38.4821 60.949 36.5382 63.2814 34.0639 64.9386C31.5896 66.5957 28.6894 67.5075 25.7097 67.5652C25.3861 66.8204 25.3183 65.9899 25.5168 65.2027C25.9837 63.4342 28.0545 62.334 29.4993 61.9458C31.1031 61.5138 31.9151 61.9695 32.602 61.2337C33.3531 60.4338 32.69 59.5833 33.4783 58.6113C34.3784 57.5044 36.1446 57.501 36.6623 57.501C37.2836 57.5273 37.8989 57.6339 38.4928 57.8182C38.8928 57.9218 39.2842 58.0561 39.6635 58.2198Z" fill="#1F7AAD" stroke="black" stroke-miterlimit="10"/>
<path d="M20.9122 47.2984C20.5198 47.6156 20.107 47.916 20.0664 48.3784C20.0258 48.8407 20.3709 48.9319 20.4352 49.4246C20.5502 50.3089 19.5622 50.8961 19.7178 51.1121C19.8735 51.3281 21.3183 50.9265 22.1472 49.8397C22.429 49.481 22.6194 49.0594 22.7021 48.6112C22.8104 47.9565 22.7021 46.9237 22.1845 46.7449C21.7717 46.5964 21.2878 46.9879 20.9122 47.2984Z" fill="#1F7AAD" stroke="black" stroke-miterlimit="10"/>
<path d="M13.7388 62.2964C11.5898 59.8542 10.2654 56.7996 9.95327 53.5651C9.64114 50.3306 10.3571 47.0801 11.9997 44.2739C13.3531 43.9533 14.2125 43.0758 14.9231 43.5247C15.1308 43.6658 15.2889 43.8685 15.3751 44.104C15.4613 44.3395 15.4713 44.5961 15.4036 44.8375C15.1599 45.4923 14.1449 45.2054 13.1298 45.9074C12.0166 46.7039 11.438 48.3847 11.9354 49.1238C12.3347 49.711 13.211 49.4073 13.4885 49.9574C13.8573 50.6932 12.4734 51.5436 12.6527 52.4616C12.9166 53.8454 16.3374 53.3121 17.3085 54.9625C18.3811 56.7715 15.9889 60.3389 13.7388 62.2964Z" fill="#1F7AAD" stroke="black" stroke-miterlimit="10"/>
<path d="M65.7638 53.1001L63.7051 50.3428" stroke="black" stroke-miterlimit="10" stroke-linecap="round"/>
<path d="M66.8634 52.2099L64.8379 49.498" stroke="black" stroke-miterlimit="10" stroke-linecap="round"/>
<path d="M75.97 60.2798L79.8676 64.9789C79.913 65.0327 79.9423 65.0983 79.952 65.168C79.9617 65.2377 79.9514 65.3087 79.9223 65.3728C79.8932 65.4369 79.8465 65.4915 79.7876 65.5302C79.7287 65.5689 79.66 65.5903 79.5895 65.5917L76.9289 65.6703C76.8519 65.6725 76.7775 65.6983 76.7159 65.7443C76.6542 65.7902 76.6083 65.854 76.5843 65.927L75.7542 68.4111C75.7315 68.4786 75.6902 68.5382 75.635 68.5832C75.5797 68.6282 75.5129 68.6566 75.4421 68.6653C75.3713 68.674 75.2995 68.6625 75.235 68.6321C75.1706 68.6018 75.116 68.5539 75.0776 68.4939L71.9854 63.5837" fill="#1F7AAD"/>
<path d="M75.97 60.2798L79.8676 64.9789C79.913 65.0327 79.9423 65.0983 79.952 65.168C79.9617 65.2377 79.9514 65.3087 79.9223 65.3728C79.8932 65.4369 79.8465 65.4915 79.7876 65.5302C79.7287 65.5689 79.66 65.5903 79.5895 65.5917L76.9289 65.6703C76.8519 65.6725 76.7775 65.6983 76.7159 65.7443C76.6542 65.7902 76.6083 65.854 76.5843 65.927L75.7542 68.4111C75.7315 68.4786 75.6902 68.5382 75.635 68.5832C75.5797 68.6282 75.5129 68.6566 75.4421 68.6653C75.3713 68.674 75.2995 68.6625 75.235 68.6321C75.1706 68.6018 75.116 68.5539 75.0776 68.4939L71.9854 63.5837" stroke="black" stroke-miterlimit="10"/>
<path d="M88.8448 32.0729C91.4224 32.9341 93.4105 33.344 93.7924 32.7064C94.5935 31.3815 88.7451 25.254 86.5992 26.3346C85.2668 26.9888 85.105 30.5245 86.5328 32.8472C88.0229 35.265 90.3183 34.9173 90.8122 36.2049C91.908 39.0409 82.1746 43.6365 72.7441 51.6892" stroke="black" stroke-miterlimit="10" stroke-linecap="round"/>
<path d="M64.4962 60.0556C55.7174 70.6545 51.7743 81.4025 48.5658 80.3426C48.1507 80.2018 47.2251 78.8024 45.3946 76.0119C43.0993 72.5176 41.9578 70.7705 41.8084 70.2157C40.2519 64.6719 56.4397 57.3686 68.8918 45.8175C75.2983 39.8726 80.9344 33.152 85.669 25.812" stroke="black" stroke-miterlimit="10" stroke-linecap="round"/>
<path d="M70.2874 63.8152C73.7786 63.8152 76.6089 60.9921 76.6089 57.5096C76.6089 54.0272 73.7786 51.2041 70.2874 51.2041C66.7961 51.2041 63.9658 54.0272 63.9658 57.5096C63.9658 60.9921 66.7961 63.8152 70.2874 63.8152Z" fill="#1F7AAD" stroke="black" stroke-miterlimit="10"/>
<g clip-path="url(#clip0_41_2766)">
<path d="M74.0175 5.13232H35.6465V27.2347H74.0175V5.13232Z" stroke="black" stroke-miterlimit="10" stroke-linecap="round"/>
<path d="M65.4134 17.5074L65.2586 18.1081L64.2448 22.0409C64.2313 22.085 64.2049 22.1243 64.1689 22.1539C64.1329 22.1836 64.0888 22.2023 64.0421 22.2079C63.9953 22.2134 63.9479 22.2055 63.9057 22.185C63.8635 22.1646 63.8283 22.1326 63.8045 22.0929L63.3859 21.3078C63.3563 21.2538 63.3154 21.2064 63.266 21.1687C63.2165 21.131 63.1596 21.1038 63.0987 21.0889C63.0379 21.074 62.9746 21.0717 62.9128 21.0821C62.851 21.0925 62.7921 21.1154 62.7399 21.1494L61.9923 21.646C61.953 21.6687 61.9081 21.6801 61.8625 21.6789C61.8169 21.6778 61.7726 21.664 61.7347 21.6393C61.6968 21.6146 61.6668 21.5799 61.6481 21.5392C61.6295 21.4986 61.623 21.4536 61.6293 21.4095L62.8391 16.7554" fill="#1F7AAD"/>
<path d="M65.4134 17.5074L65.2586 18.1081L64.2448 22.0409C64.2313 22.085 64.2049 22.1243 64.1689 22.1539C64.1329 22.1836 64.0888 22.2023 64.0421 22.2079C63.9953 22.2134 63.9479 22.2055 63.9057 22.185C63.8635 22.1646 63.8283 22.1326 63.8045 22.0929L63.3859 21.3078C63.3563 21.2538 63.3154 21.2064 63.266 21.1687C63.2165 21.131 63.1596 21.1038 63.0987 21.0889C63.0379 21.074 62.9746 21.0717 62.9128 21.0821C62.851 21.0925 62.7921 21.1154 62.7399 21.1494L61.9923 21.646C61.953 21.6687 61.9081 21.6801 61.8625 21.6789C61.8169 21.6778 61.7726 21.664 61.7347 21.6393C61.6968 21.6146 61.6668 21.5799 61.6481 21.5392C61.6295 21.4986 61.623 21.4536 61.6293 21.4095L62.8391 16.7554" stroke="black" stroke-miterlimit="10"/>
<path d="M67.4874 16.2729L69.0649 21.0264C69.0774 21.0709 69.0764 21.1179 69.0619 21.1618C69.0473 21.2057 69.02 21.2445 68.9833 21.2734C68.9465 21.3023 68.9019 21.32 68.8549 21.3245C68.808 21.3289 68.7607 21.3198 68.7189 21.2984L67.9471 20.8585C67.8932 20.8272 67.833 20.8075 67.7707 20.8006C67.7084 20.7938 67.6453 20.8 67.5856 20.8187C67.5259 20.8375 67.4709 20.8685 67.4244 20.9096C67.3778 20.9507 67.3408 21.001 67.3156 21.0571L66.9503 21.8683C66.9291 21.9094 66.8961 21.9435 66.8554 21.9666C66.8147 21.9896 66.768 22.0006 66.721 21.9981C66.674 21.9956 66.6288 21.9797 66.5908 21.9525C66.5529 21.9252 66.524 21.8877 66.5075 21.8446L65.2687 18.1128L65.0703 17.5476" fill="#1F7AAD"/>
<path d="M67.4874 16.2729L69.0649 21.0264C69.0774 21.0709 69.0764 21.1179 69.0619 21.1618C69.0473 21.2057 69.02 21.2445 68.9833 21.2734C68.9465 21.3023 68.9019 21.32 68.8549 21.3245C68.808 21.3289 68.7607 21.3198 68.7189 21.2984L67.9471 20.8585C67.8932 20.8272 67.833 20.8075 67.7707 20.8006C67.7084 20.7938 67.6453 20.8 67.5856 20.8187C67.5259 20.8375 67.4709 20.8685 67.4244 20.9096C67.3778 20.9507 67.3408 21.001 67.3156 21.0571L66.9503 21.8683C66.9291 21.9094 66.8961 21.9435 66.8554 21.9666C66.8147 21.9896 66.768 22.0006 66.721 21.9981C66.674 21.9956 66.6288 21.9797 66.5908 21.9525C66.5529 21.9252 66.524 21.8877 66.5075 21.8446L65.2687 18.1128L65.0703 17.5476" stroke="black" stroke-miterlimit="10"/>
<path d="M39.5176 11.3965H58.7019" stroke="black" stroke-miterlimit="10" stroke-linecap="round"/>
<path d="M39.5176 15.1802H54.8307" stroke="black" stroke-miterlimit="10" stroke-linecap="round"/>
<path d="M39.5176 18.9077H50.5627" stroke="black" stroke-miterlimit="10" stroke-linecap="round"/>
<path d="M64.9418 17.5429C66.6776 17.5429 68.0847 16.1675 68.0847 14.4709C68.0847 12.7743 66.6776 11.3989 64.9418 11.3989C63.206 11.3989 61.7988 12.7743 61.7988 14.4709C61.7988 16.1675 63.206 17.5429 64.9418 17.5429Z" stroke="black" stroke-miterlimit="10" stroke-linecap="round"/>
</g>
<defs>
<clipPath id="clip0_41_2766">
<rect width="38.613" height="22.3388" fill="white" transform="translate(35.5254 5.01367)"/>
</clipPath>
</defs>
</svg>
