<svg width="116" height="54" viewBox="0 0 116 54" fill="none" xmlns="http://www.w3.org/2000/svg">
<path fill-rule="evenodd" clip-rule="evenodd" d="M24.1785 39.5684C18.5282 39.5684 15.7492 35.9297 14.666 32.1283C15.8894 38.2994 22.4995 44.3399 43.3534 47.0348C63.0566 49.5801 75.8955 43.1974 80.2277 40.2272C80.2277 40.2272 83.1548 38.8664 81.3989 40.9699C81.3989 40.9699 68.9897 53.0983 44.6412 53.2222C20.2928 53.3461 0.97771 40.3518 1.09427 27.2323C0.97771 14.1141 20.2928 1.11917 44.6412 1.24307C68.9897 1.36696 81.3989 13.4953 81.3989 13.4953C83.1548 15.5995 80.2277 14.238 80.2277 14.238C75.8962 11.2679 63.1118 5.41804 43.3534 7.43113C23.9218 9.41144 17.5783 16.3914 15.4715 21.0947C14.6605 22.9046 14.2946 24.6109 14.2023 26.3303C14.7274 21.8433 17.3656 16.552 24.1785 16.552C31.896 16.552 34.2576 23.3411 34.2576 28.0609C34.257 32.7786 31.896 39.5684 24.1785 39.5684ZM102.63 35.0323H112.91V38.9909H98.3107V17.1301H102.63V35.0323ZM86.7677 27.208H95.4072V38.9909H92.5271L92.0962 36.2496C91.0012 37.5901 89.4177 39.5678 85.6454 39.5678C80.6635 39.5678 76.1429 35.7933 76.1429 28.1205C76.1429 22.1534 79.2815 16.5205 86.25 16.5513C92.586 16.5513 95.0916 20.9052 95.3216 23.9187H91.0019C91.0019 23.0665 89.533 20.3264 86.4812 20.3264C83.3991 20.3264 80.5488 22.5801 80.5488 28.1821C80.5488 34.1499 83.6297 35.7015 86.5674 35.7015C87.5179 35.7015 90.685 35.3056 91.5772 30.8914H86.7683V27.208H86.7677ZM24.1785 19.1701C19.6864 19.1701 16.9794 22.9151 16.9794 28.0609C16.9794 33.2053 19.6864 36.9503 24.1785 36.9503C28.6712 36.9503 31.3776 33.2053 31.3776 28.0609C31.3776 22.9151 28.6706 19.1701 24.1785 19.1701ZM35.8065 25.0107H37.9053V26.9891H37.9561C38.4868 26.1867 39.4981 24.6102 41.9001 24.6102C45.4138 24.6102 47.9187 27.7587 47.9187 31.6878C47.9187 35.0296 46.097 39.3914 41.5969 39.3914C39.8273 39.3914 38.6642 38.5091 38.0832 37.5199H38.0324V44.5235H35.8071V25.0107H35.8065ZM41.4289 37.3593C43.8563 37.3593 45.5006 35.1352 45.5006 32.0615C45.5006 30.2719 44.8161 26.7216 41.378 26.7216C38.1669 26.7216 37.8129 30.3833 37.8129 32.656C37.8135 36.3715 40.0133 37.3593 41.4289 37.3593ZM61.3819 34.6068C61.3069 35.2755 60.6999 37.2532 59.0314 38.4285C58.4244 38.8559 57.5644 39.3914 55.4408 39.3914C51.7244 39.3914 49.5246 36.4239 49.5246 32.3879C49.5246 28.0582 51.4969 24.6096 55.8705 24.6096C59.6887 24.6096 61.558 27.817 61.558 32.7616H51.9017C51.9017 35.6753 53.1914 37.3593 55.7447 37.3593C57.8428 37.3593 59.081 35.6491 59.1573 34.6068H61.3819ZM59.024 30.8914C58.8981 28.7262 58.0381 26.7216 55.333 26.7216C53.285 26.7216 51.6668 28.7269 51.6668 30.8914H59.024ZM73.855 38.9909H71.6304V30.3833C71.6304 27.9507 70.9725 26.7216 68.7993 26.7216C67.5351 26.7216 65.3104 27.5771 65.3104 31.3719V38.9909H63.0845V25.0107H65.1833V26.9891H65.2342C65.7147 26.2405 66.9535 24.6102 69.2278 24.6102C71.2757 24.6102 73.855 25.4919 73.855 29.4742V38.9909Z" fill="#E6E6E7"/>
<path fill-rule="evenodd" clip-rule="evenodd" d="M114.174 35.8955V36.0928H113.588V37.8044H113.356V36.0928H112.765V35.8955H114.174ZM114.725 35.8955L115.175 37.4202H115.184L115.653 35.8955H115.999V37.8044H115.795V36.0928H115.785L115.253 37.8044H115.098L114.598 36.0928H114.588V37.8044H114.384V35.8955H114.725Z" fill="#5487B2"/>
<path fill-rule="evenodd" clip-rule="evenodd" d="M24.1265 39.5154C18.4756 39.5154 15.6972 35.8766 14.614 32.0753C15.8373 38.2463 22.4474 44.2869 43.302 46.9804C63.0053 49.5271 75.8442 43.1443 80.1757 40.1742C80.1757 40.1742 83.1028 38.812 81.3469 40.9169C81.3469 40.9169 68.9377 53.0452 44.5898 53.1691C20.2408 53.2923 0.92632 40.2981 1.0435 27.1792C0.9257 14.061 20.2408 1.06611 44.5892 1.18935C68.9377 1.31324 81.3463 13.4416 81.3463 13.4416C83.1022 15.5458 80.175 14.1843 80.175 14.1843C75.8435 11.2141 63.0592 5.36432 43.3014 7.37741C23.8698 9.35772 17.5263 16.3383 15.4194 21.041C14.6085 22.8509 14.2426 24.5572 14.1503 26.2766C14.6754 21.7896 17.3136 16.4983 24.1265 16.4983C31.844 16.4983 34.205 23.2881 34.205 28.0065C34.205 32.7255 31.844 39.5154 24.1265 39.5154ZM102.578 34.9792H112.859V38.9366H98.2587V17.0771H102.578V34.9792ZM86.7157 27.1537H95.3552V38.9366H92.4751C92.3313 38.0234 92.1868 37.1096 92.0442 36.1965C90.9492 37.5357 89.3657 39.5147 85.5935 39.5147C80.6115 39.5147 76.0897 35.739 76.0897 28.0675C76.0897 22.0996 79.2283 16.4674 86.198 16.4983C92.534 16.4983 95.0396 20.8522 95.2696 23.8663H90.9499C90.9499 23.0134 89.481 20.274 86.428 20.274C83.3471 20.274 80.4968 22.527 80.4968 28.1284C80.4968 34.0962 83.5777 35.6491 86.5154 35.6491C87.4659 35.6491 90.633 35.2532 91.5252 30.839H86.7163L86.7157 27.1537ZM24.1265 19.1164C19.6338 19.1164 16.9274 22.8613 16.9274 28.0065C16.9274 33.1523 19.6344 36.8966 24.1265 36.8966C28.6186 36.8966 31.3256 33.1516 31.3256 28.0065C31.3256 22.8613 28.6186 19.1164 24.1265 19.1164ZM35.7551 24.9577H37.8533V26.9354H37.9041C38.4348 26.1337 39.4461 24.5572 41.8481 24.5572C45.3618 24.5572 47.8667 27.7063 47.8667 31.6354C47.8667 34.9772 46.045 39.3377 41.5449 39.3377C39.7753 39.3377 38.6122 38.4554 38.0306 37.4669H37.9797V44.4704H35.7551V24.9577ZM41.3769 37.3063C43.8043 37.3063 45.4492 35.0821 45.4492 32.0084C45.4492 30.2175 44.7647 26.6686 41.3266 26.6686C38.1155 26.6686 37.7621 30.3303 37.7621 32.6017C37.7621 36.3171 39.9613 37.3063 41.3769 37.3063ZM61.3299 34.5525C61.2549 35.2211 60.6479 37.1988 58.9794 38.3754C58.3724 38.8028 57.5131 39.3371 55.3895 39.3371C51.673 39.3371 49.4732 36.3709 49.4732 32.3349C49.4732 28.0039 51.4455 24.5559 55.8191 24.5559C59.636 24.5559 61.5067 27.764 61.5067 32.7085H51.8497C51.8497 35.621 53.1388 37.3063 55.6927 37.3063C57.7908 37.3063 59.029 35.596 59.1053 34.5525H61.3299ZM58.972 30.837C58.8461 28.6718 57.9868 26.6686 55.2816 26.6686C53.2336 26.6686 51.6154 28.6725 51.6154 30.837H58.972ZM73.803 38.9366H71.5784V30.3303C71.5784 27.8977 70.9205 26.6686 68.7461 26.6686C67.4831 26.6686 65.2572 27.524 65.2572 31.3188V38.9366H63.0325V24.9577H65.1313V26.9354H65.1822C65.6627 26.1874 66.9015 24.5572 69.1758 24.5572C71.2237 24.5572 73.803 25.4395 73.803 29.4217V38.9366Z" fill="#DFE0E1"/>
<path fill-rule="evenodd" clip-rule="evenodd" d="M24.0724 39.4578C18.4221 39.4578 15.6431 35.819 14.56 32.0177C15.7833 38.1874 22.3934 44.2293 43.248 46.9228C62.9512 49.4694 75.7901 43.0867 80.1216 40.1165C80.1216 40.1165 83.0487 38.7544 81.2928 40.8592C81.2928 40.8592 68.8836 52.9876 44.5351 53.1102C20.1867 53.2341 0.871627 40.2404 0.988812 27.1216C0.871627 14.0034 20.1867 1.00849 44.5351 1.13173C68.8836 1.25562 81.2928 13.384 81.2928 13.384C83.0487 15.4875 80.1216 14.1267 80.1216 14.1267C75.7901 11.1565 63.0057 5.30605 43.248 7.31979C23.8157 9.30011 17.4728 16.28 15.366 20.9827C14.555 22.7926 14.1886 24.4989 14.0968 26.2183C14.622 21.732 17.2596 16.4406 24.0724 16.4406C31.7899 16.4406 34.1516 23.2298 34.1516 27.9489C34.1516 32.6679 31.7899 39.4578 24.0724 39.4578ZM102.524 34.9216H112.804V38.8789H98.2047V17.0195H102.524V34.9216ZM86.6616 27.096H95.3011V38.8789H92.4211L91.9889 36.1389C90.8952 37.4781 89.3116 39.4571 85.5394 39.4571C80.5575 39.4571 76.0368 35.6813 76.0368 28.0098C76.0368 22.042 79.1748 16.4098 86.1439 16.4406C92.48 16.4406 94.9855 20.7946 95.2155 23.8086H90.8958C90.8958 22.9558 89.4269 20.2164 86.3739 20.2164C83.293 20.2164 80.4427 22.4694 80.4427 28.0708C80.4427 34.0386 83.5237 35.5915 86.4613 35.5915C87.4118 35.5915 90.5789 35.1956 91.4712 30.7814C89.869 30.78 88.2656 30.78 86.6622 30.7814L86.6616 27.096ZM24.0724 19.0594C19.5803 19.0594 16.8733 22.8044 16.8733 27.9495C16.8733 33.0953 19.5803 36.8396 24.0724 36.8396C28.5651 36.8396 31.2715 33.0947 31.2715 27.9495C31.2715 22.8037 28.5651 19.0594 24.0724 19.0594ZM35.7016 24.9001H37.7998V26.8778H37.8506C38.3814 26.0761 39.3926 24.4995 41.7946 24.4995C45.3083 24.4995 47.8139 27.6486 47.8139 31.5778C47.8139 34.9183 45.9916 39.2801 41.4914 39.2801C39.7219 39.2801 38.5593 38.3978 37.9777 37.4093H37.9269V44.4128C37.1853 44.4115 36.4438 44.4115 35.7022 44.4128L35.7016 24.9001ZM41.3228 37.2493C43.7502 37.2493 45.3951 35.0252 45.3951 31.9514C45.3951 30.1606 44.7106 26.611 41.2726 26.611C38.0621 26.611 37.7074 30.2733 37.7074 32.5447C37.7074 36.2595 39.9073 37.2493 41.3228 37.2493ZM61.2759 34.4949C61.2008 35.1635 60.5938 37.1412 58.9253 38.3178C58.3183 38.7452 57.459 39.2795 55.3348 39.2795C51.6183 39.2795 49.4191 36.3132 49.4191 32.2772C49.4191 27.9462 51.3908 24.4982 55.7645 24.4982C59.5826 24.4982 61.452 27.7063 61.452 32.6509H51.795C51.795 35.5633 53.0841 37.2487 55.638 37.2487C57.7361 37.2487 58.9743 35.5371 59.0506 34.4949H61.2759ZM58.9179 30.7794C58.792 28.6142 57.9327 26.6103 55.2275 26.6103C53.1796 26.6103 51.5613 28.6149 51.5613 30.7794H58.9179ZM73.7489 38.8789H71.5243V30.2727C71.5243 27.8401 70.8664 26.6103 68.6932 26.6103C67.429 26.6103 65.2031 27.4664 65.2031 31.2612V38.8789H62.9785V24.9001H65.0772V26.8778H65.1281C65.6086 26.1298 66.8462 24.4995 69.1217 24.4995C71.1696 24.4995 73.7489 25.3819 73.7489 29.3641V38.8789Z" fill="#D9DADB"/>
<path fill-rule="evenodd" clip-rule="evenodd" d="M24.0216 39.3992C18.3713 39.3992 15.593 35.7604 14.5092 31.9578C15.7331 38.1288 22.3426 44.1694 43.1972 46.8642C62.9004 49.4096 75.7393 43.0268 80.0708 40.0567C80.0708 40.0567 82.9979 38.6958 81.242 40.8007C81.242 40.8007 68.8328 52.929 44.4844 53.0516C20.1359 53.1755 0.820845 40.1805 0.93803 27.063C0.820845 13.9442 20.1359 0.949252 44.4844 1.07314C68.8328 1.19704 81.242 13.3254 81.242 13.3254C82.9979 15.4296 80.0708 14.0681 80.0708 14.0681C75.7393 11.0979 62.955 5.24812 43.1972 7.26121C23.7649 9.24153 17.4221 16.2215 15.3152 20.9241C14.5042 22.734 14.1378 24.4403 14.046 26.1597C14.5712 21.6727 17.2088 16.3814 24.0216 16.3814C31.7391 16.3814 34.1008 23.1706 34.1008 27.8896C34.1008 32.6093 31.7391 39.3992 24.0216 39.3992ZM102.474 34.863C105.9 34.8617 109.327 34.8617 112.754 34.863V38.8204H98.1539V16.9602H102.474V34.863ZM86.6108 27.0375H95.2503V38.8204H92.3703C92.2264 37.9059 92.082 36.9934 91.9394 36.0803C90.8444 37.4195 89.2608 39.3985 85.4886 39.3985C80.5067 39.3985 75.9861 35.6227 75.9861 27.9499C75.9861 21.9834 79.1246 16.3506 86.0931 16.3814C92.4292 16.3814 94.9347 20.7353 95.1647 23.7494H90.845C90.845 22.8966 89.3762 20.1565 86.3232 20.1565C83.2422 20.1565 80.392 22.4102 80.392 28.0116C80.392 33.9794 83.4729 35.5323 86.4106 35.5323C87.3598 35.5323 90.5282 35.1364 91.4204 30.7208H86.6115L86.6108 27.0375ZM24.0216 19.0002C19.5295 19.0002 16.8225 22.7451 16.8225 27.8903C16.8225 33.0361 19.5295 36.7804 24.0216 36.7804C28.5143 36.7804 31.2208 33.0354 31.2208 27.8903C31.2208 22.7451 28.5137 19.0002 24.0216 19.0002ZM35.6502 24.8408H37.749V26.8185H37.7999C38.3306 26.0168 39.3419 24.4397 41.7432 24.4397C45.2575 24.4397 47.7624 27.5894 47.7624 31.5186C47.7624 34.8591 45.9408 39.2209 41.44 39.2209C39.6705 39.2209 38.5079 38.3386 37.9263 37.35H37.8755V44.3522H35.6508L35.6502 24.8408ZM41.272 37.1894C43.6994 37.1894 45.3443 34.9666 45.3443 31.8929C45.3443 30.102 44.6598 26.5517 41.2218 26.5517C38.0113 26.5517 37.6566 30.2147 37.6566 32.4861C37.6566 36.2009 39.8565 37.1894 41.272 37.1894ZM61.2251 34.4363C61.1501 35.1049 60.5431 37.0826 58.8746 38.2592C58.2676 38.6866 57.4082 39.2209 55.284 39.2209C51.5676 39.2209 49.3683 36.2547 49.3683 32.2173C49.3683 27.8877 51.34 24.4397 55.7137 24.4397C59.5318 24.4397 61.4012 27.6471 61.4012 32.593C58.1826 32.5916 54.9634 32.5916 51.7443 32.593C51.7443 35.5054 53.0333 37.1894 55.5866 37.1894C57.6847 37.1894 58.9229 35.4792 58.9992 34.4369L61.2251 34.4363ZM58.8671 30.7208C58.7413 28.5556 57.8819 26.5511 55.1761 26.5511C53.1288 26.5511 51.5105 28.5563 51.5105 30.7208H58.8671ZM73.6982 38.8204H71.4735V30.2141C71.4735 27.7815 70.8157 26.5511 68.6425 26.5511C67.3782 26.5511 65.1536 27.4065 65.1536 31.2026V38.8204H62.9277V24.8408H65.0265V26.8185H65.0773C65.5566 26.0706 66.7966 24.4397 69.0709 24.4397C71.1189 24.4397 73.6982 25.322 73.6982 29.3049V38.8204Z" fill="#D3D4D5"/>
<path fill-rule="evenodd" clip-rule="evenodd" d="M23.9702 39.3455C18.3193 39.3455 15.541 35.7067 14.4578 31.904C15.6811 38.0751 22.2912 44.1157 43.1458 46.8105C62.849 49.3558 75.6879 42.9731 80.0194 40.0029C80.0194 40.0029 82.9466 38.6421 81.1906 40.7456C81.1906 40.7456 68.7814 52.874 44.4336 52.9979C20.0845 53.1218 0.77007 40.1268 0.887255 27.008C0.76945 13.8905 20.0845 0.895541 44.433 1.01943C68.7814 1.14267 81.19 13.2717 81.19 13.2717C82.9459 15.3759 80.0188 14.0144 80.0188 14.0144C75.6873 11.0442 62.903 5.19441 43.1452 7.2075C23.7135 9.18716 17.37 16.1677 15.2632 20.8704C14.4522 22.6803 14.0864 24.3866 13.994 26.106C14.5192 21.619 17.1574 16.3277 23.9702 16.3277C31.6877 16.3277 34.0488 23.1169 34.0488 27.8366C34.0488 32.5563 31.6877 39.3455 23.9702 39.3455ZM102.422 34.808H112.702V38.7666H98.1025V16.9065H102.422V34.808ZM86.5594 26.9837H95.1989V38.7666H92.3189C92.175 37.8522 92.0306 36.9397 91.888 36.0253C90.793 37.3658 89.2094 39.3448 85.4372 39.3448C80.4553 39.3448 75.9334 35.569 75.9334 27.8962C75.9334 21.9291 79.072 16.2969 86.0417 16.3277C92.3778 16.3277 94.8833 20.6816 95.1133 23.6957H90.7936C90.7936 22.8429 89.3248 20.1035 86.2718 20.1035C83.1908 20.1035 80.3406 22.3565 80.3406 27.9585C80.3406 33.9263 83.4215 35.4792 86.3592 35.4792C87.3097 35.4792 90.4768 35.0826 91.369 30.6677H86.5601L86.5594 26.9837ZM23.9702 18.9465C19.4775 18.9465 16.7711 22.6914 16.7711 27.8366C16.7711 32.9824 19.4781 36.726 23.9702 36.726C28.4623 36.726 31.1694 32.9824 31.1694 27.8366C31.1694 22.6914 28.4623 18.9465 23.9702 18.9465ZM35.5988 24.7871H37.6976V26.7648H37.7485C38.2792 25.9631 39.2905 24.3859 41.6925 24.3859C45.2061 24.3859 47.7111 27.5344 47.7111 31.4649C47.7111 34.8054 45.8894 39.1672 41.3893 39.1672C39.6197 39.1672 38.4565 38.2848 37.875 37.2957H37.8241V44.2992H35.5995L35.5988 24.7871ZM41.2206 37.1357C43.648 37.1357 45.2923 34.9129 45.2923 31.8392C45.2923 30.0483 44.6078 26.498 41.1698 26.498C37.9587 26.498 37.6046 30.1597 37.6046 32.4324C37.6052 36.1472 39.8051 37.1357 41.2206 37.1357ZM61.1737 34.3832C61.0987 35.0518 60.4917 37.0295 58.8232 38.2049C58.2162 38.6323 57.3568 39.1678 55.2332 39.1678C51.5168 39.1678 49.3169 36.2016 49.3169 32.1643C49.3169 27.8346 51.2892 24.3866 55.6629 24.3866C59.4798 24.3866 61.3504 27.594 61.3504 32.5386H51.6935C51.6935 35.4524 52.9831 37.1364 55.5364 37.1364C57.6346 37.1364 58.8728 35.4261 58.949 34.3839L61.1737 34.3832ZM58.8157 30.6677C58.6899 28.5026 57.8305 26.498 55.1253 26.498C53.0774 26.498 51.4591 28.5032 51.4591 30.6677H58.8157ZM73.6468 38.7666H71.4221V30.1591C71.4221 27.7264 70.7643 26.4974 68.5898 26.4974C67.3268 26.4974 65.1009 27.3528 65.1009 31.1489V38.7666H62.8763V24.7871H64.9751V26.7648H65.0259C65.5064 26.0162 66.7453 24.3859 69.0195 24.3859C71.0675 24.3859 73.6468 25.2676 73.6468 29.2499V38.7666Z" fill="#CCCDCF"/>
<path fill-rule="evenodd" clip-rule="evenodd" d="M23.9162 39.2865C18.2659 39.2865 15.4869 35.6478 14.4037 31.8464C15.627 38.0175 22.2371 44.058 43.0917 46.7529C62.7949 49.2982 75.6338 42.9155 79.9653 39.9453C79.9653 39.9453 82.8912 38.5845 81.1366 40.688C81.1366 40.688 68.7273 52.8164 44.3789 52.9403C20.0304 53.0642 0.715377 40.0699 0.832562 26.951C0.715377 13.8329 20.0304 0.837924 44.3789 0.961816C68.7273 1.08505 81.1366 13.2141 81.1366 13.2141C82.8912 15.3183 79.9653 13.9568 79.9653 13.9568C75.6338 10.9866 62.8495 5.13614 43.0917 7.14988C23.6595 9.13019 17.3166 16.1101 15.2091 20.8128C14.3981 22.6227 14.0323 24.3296 13.9399 26.0484C14.4651 21.5614 17.1033 16.2701 23.9162 16.2701C31.6336 16.2701 33.9953 23.0592 33.9953 27.779C33.9953 32.498 31.6336 39.2865 23.9162 39.2865ZM102.368 34.7504H112.648V38.7077H98.0484V16.8489H102.368V34.7504ZM86.5054 26.9261H95.1448V38.7077H92.2648L91.8326 35.9677C90.7389 37.3082 89.1554 39.2859 85.3831 39.2859C80.4012 39.2859 75.8794 35.5114 75.8794 27.8386C75.8794 21.8715 79.0179 16.2393 85.9876 16.2694C92.3237 16.2694 94.8292 20.6233 95.0593 23.6374H90.7395C90.7395 22.7846 89.2707 20.0445 86.2177 20.0445C83.1368 20.0445 80.2865 22.2975 80.2865 27.8996C80.2865 33.8674 83.3674 35.419 86.3051 35.419C87.2556 35.419 90.4227 35.0231 91.3149 30.6088H86.506L86.5054 26.9261ZM23.9162 18.8882C19.4241 18.8882 16.717 22.6332 16.717 27.779C16.717 32.9234 19.4241 36.6684 23.9162 36.6684C28.4089 36.6684 31.1153 32.9234 31.1153 27.779C31.1153 22.6338 28.4089 18.8882 23.9162 18.8882ZM35.5454 24.7288H37.6435V26.7072H37.6944C38.2251 25.9048 39.2364 24.3283 41.6384 24.3283C45.1521 24.3283 47.657 27.4768 47.657 31.4059C47.657 34.7477 45.8353 39.1095 41.3346 39.1095C39.565 39.1095 38.4025 38.2272 37.8209 37.238H37.77V44.2416H35.5454V24.7288ZM41.1665 37.0781C43.5939 37.0781 45.2389 34.8539 45.2389 31.7815C45.2389 29.9907 44.5544 26.4404 41.1163 26.4404C37.9058 26.4404 37.5512 30.1021 37.5512 32.3748C37.5512 36.0896 39.751 37.0781 41.1665 37.0781ZM61.1196 34.3256C61.0446 34.9942 60.4376 36.9719 58.7691 38.1472C58.1621 38.5746 57.3027 39.1102 55.1785 39.1102C51.4621 39.1102 49.2628 36.1427 49.2628 32.1067C49.2628 27.777 51.2345 24.3283 55.6082 24.3283C59.4251 24.3283 61.2957 27.5358 61.2957 32.4803H51.6388C51.6388 35.3941 52.9278 37.0781 55.4817 37.0781C57.5799 37.0781 58.8181 35.3679 58.8943 34.3256C59.6365 34.3243 60.3787 34.3243 61.1196 34.3256ZM58.7617 30.6101C58.6358 28.445 57.7764 26.4404 55.0713 26.4404C53.0233 26.4404 51.405 28.4456 51.405 30.6101H58.7617ZM73.5927 38.7077H71.368V30.1014C71.368 27.6688 70.7102 26.4397 68.537 26.4397C67.2728 26.4397 65.0469 27.2952 65.0469 31.0913V38.7077H62.8222V24.7288H64.921V26.7072H64.9718C65.4524 25.9586 66.6899 24.3283 68.9654 24.3283C71.0134 24.3283 73.5927 25.2106 73.5927 29.1922V38.7077Z" fill="#C6C7C9"/>
<path fill-rule="evenodd" clip-rule="evenodd" d="M23.8654 39.2289C18.2151 39.2289 15.4361 35.5901 14.3529 31.7888C15.5762 37.9598 22.1863 44.0004 43.0409 46.6952C62.7441 49.2406 75.583 42.8578 79.9146 39.8877C79.9146 39.8877 82.8417 38.5269 81.0858 40.6304C81.0858 40.6304 68.6766 52.7588 44.3281 52.8826C19.9797 53.0065 0.664595 40.0116 0.78178 26.8928C0.664595 13.7746 19.9797 0.780307 44.3281 0.904199C68.6766 1.02744 81.0858 13.1564 81.0858 13.1564C82.8417 15.26 79.9146 13.8991 79.9146 13.8991C75.583 10.929 62.7987 5.07852 43.0409 7.09227C23.6087 9.07258 17.2652 16.0525 15.1583 20.7552C14.3473 22.5651 13.9809 24.2714 13.8891 25.9908C14.4143 21.5038 17.0519 16.2125 23.8648 16.2125C31.5822 16.2125 33.9439 23.0016 33.9439 27.7213C33.9445 32.4397 31.5828 39.2289 23.8654 39.2289ZM102.317 34.6927H112.597V38.6514C107.731 38.6501 102.865 38.6501 97.9976 38.6514V16.7913H102.317V34.6927ZM86.4546 26.8692C89.3346 26.8679 92.214 26.8679 95.094 26.8692V38.6521C94.1349 38.6508 93.1744 38.6508 92.214 38.6521L91.7819 35.9107C90.6881 37.2512 89.1046 39.2289 85.3323 39.2289C80.3504 39.2289 75.8298 35.4545 75.8298 27.7816C75.8298 21.8145 78.9678 16.1823 85.9369 16.2125C92.2729 16.2125 94.7785 20.5664 95.0085 23.5804H90.6888C90.6888 22.7283 89.2199 19.9882 86.1669 19.9882C83.086 19.9882 80.2357 22.2412 80.2357 27.8433C80.2357 33.8098 83.3166 35.3627 86.2543 35.3627C87.2036 35.3627 90.3719 34.9668 91.2641 30.5525H86.4552L86.4546 26.8692ZM23.8654 18.8306C19.3733 18.8306 16.6662 22.5755 16.6662 27.7213C16.6662 32.8658 19.3733 36.6108 23.8654 36.6108C28.3581 36.6108 31.0645 32.8658 31.0645 27.7213C31.0645 22.5755 28.3575 18.8306 23.8654 18.8306ZM35.494 24.6712H37.5921V26.6489H37.643C38.1744 25.8472 39.185 24.2707 41.587 24.2707C45.1013 24.2707 47.6062 27.4191 47.6062 31.3483C47.6062 34.6901 45.7846 39.0519 41.2838 39.0519C39.5142 39.0519 38.3517 38.1696 37.7701 37.1804H37.7193V44.184H35.4946L35.494 24.6712ZM41.1158 37.0205C43.5432 37.0205 45.1881 34.7963 45.1881 31.7226C45.1881 29.9331 44.5036 26.3821 41.0655 26.3821C37.855 26.3821 37.5004 30.0438 37.5004 32.3165C37.5004 36.032 39.7002 37.0205 41.1158 37.0205ZM61.0688 34.268C60.9926 34.9353 60.3856 36.9143 58.7183 38.0896C58.1113 38.517 57.252 39.0526 55.1277 39.0526C51.4113 39.0526 49.2121 36.0851 49.2121 32.0491C49.2121 27.7194 51.1838 24.2707 55.5574 24.2707C59.3755 24.2707 61.2449 27.4781 61.2449 32.4227H51.588C51.588 35.3365 52.877 37.0205 55.4303 37.0205C57.5285 37.0205 58.7667 35.3102 58.8429 34.268H61.0688ZM58.7109 30.5525C58.585 28.3873 57.7257 26.3821 55.0199 26.3821C52.9725 26.3821 51.3543 28.3873 51.3543 30.5525H58.7109ZM73.5419 38.6514C72.801 38.6501 72.0582 38.6501 71.3173 38.6514V30.0438C71.3173 27.6112 70.6594 26.3821 68.4862 26.3821C67.222 26.3821 64.9961 27.2376 64.9961 31.0324V38.6514C64.2552 38.6501 63.5136 38.6501 62.7714 38.6514V24.6712H64.8702V26.6489H64.9211C65.4003 25.901 66.6404 24.2707 68.9147 24.2707C70.9626 24.2707 73.5419 25.153 73.5419 29.1346V38.6514Z" fill="#C1C3C5"/>
<path fill-rule="evenodd" clip-rule="evenodd" d="M23.8146 39.1759C18.1637 39.1759 15.3853 35.5371 14.3021 31.7358C15.5255 37.9068 22.1356 43.9474 42.9902 46.6422C62.6934 49.1875 75.5323 42.8048 79.8638 39.8347C79.8638 39.8347 82.7909 38.4738 81.035 40.5774C81.035 40.5774 68.6258 52.7057 44.2773 52.8283C19.9289 52.9522 0.613814 39.9585 0.730999 26.8397C0.613814 13.7215 19.9289 0.726596 44.2773 0.850488C68.6258 0.974381 81.035 13.1027 81.035 13.1027C82.7909 15.2069 79.8638 13.8454 79.8638 13.8454C75.5323 10.8753 62.7479 5.02547 42.9902 7.03855C23.5579 9.01887 17.215 15.9988 15.1076 20.7021C14.2966 22.512 13.9307 24.2183 13.8384 25.9377C14.3635 21.4507 17.0017 16.1594 23.8146 16.1594C31.5321 16.1594 33.8931 22.9492 33.8931 27.6676C33.8937 32.3867 31.5321 39.1759 23.8146 39.1759ZM102.267 34.6397H112.547V38.597H97.9468V16.7376H102.267V34.6397ZM86.4044 26.8148H95.0439V38.5977H92.1639C92.02 37.6846 91.8755 36.7708 91.7329 35.8576C90.638 37.1969 89.0544 39.1759 85.2822 39.1759C80.3003 39.1759 75.7784 35.4001 75.7784 27.7286C75.7784 21.7608 78.917 16.1286 85.8867 16.1594C92.2228 16.1594 94.7283 20.5133 94.9583 23.5274H90.6386C90.6386 22.6746 89.1697 19.9352 86.1167 19.9352C83.0358 19.9352 80.1856 22.1882 80.1856 27.7896C80.1856 33.7574 83.2665 35.3103 86.2042 35.3103C87.1547 35.3103 90.3218 34.9144 91.214 30.5001H86.405L86.4044 26.8148ZM23.8146 18.7775C19.3219 18.7775 16.6155 22.5225 16.6155 27.667C16.6155 32.8128 19.3225 36.5571 23.8146 36.5571C28.3067 36.5571 31.0137 32.8121 31.0137 27.667C31.0137 22.5225 28.3067 18.7775 23.8146 18.7775ZM35.4432 24.6188H37.542V26.5965C37.5589 26.5959 37.5759 26.5959 37.5928 26.5965C38.1236 25.7948 39.1348 24.2176 41.5362 24.2176C45.0505 24.2176 47.5554 27.3667 47.5554 31.2959C47.5554 34.6377 45.7338 38.9982 41.233 38.9982C39.4634 38.9982 38.3003 38.1172 37.7193 37.1274H37.6685V44.1309H35.4438L35.4432 24.6188ZM41.065 36.9674C43.4924 36.9674 45.1367 34.7433 45.1367 31.6695C45.1367 29.88 44.4522 26.3291 41.0141 26.3291C37.803 26.3291 37.449 29.9908 37.449 32.2621C37.4496 35.9776 39.6495 36.9674 41.065 36.9674ZM61.0181 34.2136C60.943 34.8822 60.336 36.8599 58.6675 38.0366C58.0605 38.464 57.2006 38.9982 55.077 38.9982C51.3605 38.9982 49.1607 36.032 49.1607 31.996C49.1607 27.665 51.133 24.2176 55.5066 24.2176C59.3235 24.2176 61.1941 27.4257 61.1941 32.3703H51.5372C51.5372 35.2827 52.8269 36.9681 55.3802 36.9681C57.4783 36.9681 58.7165 35.2578 58.7928 34.2143L61.0181 34.2136ZM58.6601 30.4995C58.5342 28.333 57.6749 26.3291 54.9691 26.3291C52.9211 26.3291 51.3035 28.333 51.3035 30.4995C53.7563 30.4981 56.2085 30.4981 58.6601 30.4995ZM73.4911 38.597H71.2665V29.9908C71.2665 27.5582 70.6086 26.3291 68.4342 26.3291C67.17 26.3291 64.9453 27.1845 64.9453 30.9793V38.597H62.7206V24.6182H64.8194V26.5959H64.8703C65.3496 25.8473 66.5896 24.217 68.8639 24.217C70.9118 24.217 73.4911 25.0987 73.4911 29.0816V38.597Z" fill="#BBBCBF"/>
<path fill-rule="evenodd" clip-rule="evenodd" d="M23.7638 39.1182C18.1135 39.1182 15.3345 35.4795 14.2514 31.6768C15.4747 37.8479 22.0848 43.8897 42.9388 46.5833C62.642 49.1299 75.4809 42.7472 79.813 39.777C79.813 39.777 82.7389 38.4149 80.9842 40.5197C80.9842 40.5197 68.575 52.6481 44.2266 52.7707C19.8781 52.8959 0.563033 39.9016 0.680218 26.7828C0.563033 13.6639 19.8781 0.668979 44.2266 0.792871C68.575 0.916764 80.9842 13.0451 80.9842 13.0451C82.7389 15.1487 79.813 13.7878 79.813 13.7878C75.4815 10.8177 62.6971 4.9672 42.9388 6.98094C23.5071 8.96125 17.1636 15.9412 15.0568 20.6438C14.2458 22.4537 13.88 24.16 13.7876 25.8795C14.3127 21.3924 16.951 16.1011 23.7638 16.1011C31.4813 16.1011 33.843 22.8903 33.843 27.6094C33.843 32.3291 31.4813 39.1182 23.7638 39.1182ZM102.216 34.5821H112.496V38.5394H97.8967V16.6799H102.216V34.5821ZM86.3536 26.7572H94.9931V38.5401H92.1131L91.6809 35.8C90.5872 37.1392 89.0036 39.1182 85.2314 39.1182C80.2495 39.1182 75.7276 35.3425 75.7276 27.671C75.7276 21.7032 78.8662 16.071 85.8359 16.1018C92.172 16.1018 94.6763 20.4551 94.9075 23.4698H90.5878C90.5878 22.617 89.119 19.8776 86.066 19.8776C82.985 19.8776 80.1348 22.1306 80.1348 27.7319C80.1348 33.6998 83.2157 35.2527 86.1534 35.2527C87.1039 35.2527 90.271 34.8567 91.1632 30.4425C89.561 30.4412 87.9576 30.4412 86.3543 30.4425L86.3536 26.7572ZM23.7638 18.7199C19.2717 18.7199 16.5647 22.4642 16.5647 27.61C16.5647 32.7558 19.2717 36.5001 23.7638 36.5001C28.2565 36.5001 30.9629 32.7552 30.9629 27.61C30.9629 22.4642 28.2559 18.7199 23.7638 18.7199ZM35.393 24.5606H37.4912V26.5382H37.542C38.0728 25.7365 39.084 24.16 41.486 24.16C44.9997 24.16 47.5046 27.3091 47.5046 31.2383C47.5046 34.5788 45.683 38.9406 41.1822 38.9406C39.4127 38.9406 38.2501 38.0583 37.6685 37.0698H37.6177V44.0733C36.8761 44.072 36.1346 44.072 35.393 44.0733V24.5606ZM41.0142 36.9098C43.4416 36.9098 45.0859 34.6856 45.0859 31.6119C45.0859 29.8211 44.402 26.2715 40.9634 26.2715C37.7522 26.2715 37.3982 29.9338 37.3982 32.2052C37.3988 35.92 39.5987 36.9098 41.0142 36.9098ZM60.9673 34.156C60.8923 34.8246 60.2852 36.8023 58.6168 37.979C58.0097 38.4064 57.1504 38.9406 55.0262 38.9406C51.3097 38.9406 49.1099 35.9744 49.1099 31.9384C49.1099 27.6074 51.0822 24.1594 55.4559 24.1594C59.2727 24.1594 61.1434 27.3675 61.1434 32.312H51.4864C51.4864 35.2245 52.7761 36.9098 55.3294 36.9098C57.4269 36.9098 58.6657 35.1983 58.742 34.156H60.9673ZM58.6093 30.4405C58.4834 28.2754 57.6235 26.2715 54.9189 26.2715C52.871 26.2715 51.2527 28.276 51.2527 30.4405H58.6093ZM73.4404 38.5394H71.2157V29.9332C71.2157 27.5005 70.5578 26.2708 68.3847 26.2708C67.1204 26.2708 64.8945 27.1269 64.8945 30.9217V38.5394H62.6699V24.5606H64.7687V26.5382H64.8195C65.3 25.7903 66.5376 24.16 68.8131 24.16C70.861 24.16 73.4404 25.0424 73.4404 29.0246V38.5394Z" fill="#B5B6B8"/>
<path fill-rule="evenodd" clip-rule="evenodd" d="M23.7091 39.0606C18.0588 39.0606 15.2799 35.4219 14.1967 31.6192C15.42 37.7902 22.0301 43.8308 42.8847 46.5256C62.5879 49.0723 75.4268 42.6896 79.7583 39.7194C79.7583 39.7194 82.6842 38.3573 80.9295 40.4621C80.9295 40.4621 68.5203 52.5905 44.1719 52.7131C19.8234 52.8369 0.508345 39.842 0.62553 26.7245C0.508345 13.6063 19.8234 0.611361 44.1719 0.735254C68.5203 0.858491 80.9295 12.9875 80.9295 12.9875C82.6842 15.091 79.7583 13.7302 79.7583 13.7302C75.4262 10.7594 62.6418 4.91023 42.8847 6.92332C23.4524 8.90364 17.1089 15.8836 15.0021 20.5862C14.1911 22.3961 13.8247 24.1031 13.7329 25.8218C14.2581 21.3348 16.8963 16.0435 23.7091 16.0435C31.4266 16.0435 33.7883 22.8327 33.7883 27.5517C33.7883 32.2714 31.4266 39.0606 23.7091 39.0606ZM102.162 34.5245H112.442V38.4818H97.842V16.6223H102.162V34.5245ZM86.299 26.6996H94.9384V38.4825H92.0584L91.6262 35.7424C90.5325 37.0816 88.949 39.0606 85.1767 39.0606C80.1948 39.0606 75.6742 35.2849 75.6742 27.6134C75.6742 21.6455 78.8121 16.0134 85.7812 16.0435C92.1173 16.0435 94.6228 20.3974 94.8528 23.4115H90.5331C90.5331 22.5587 89.0643 19.8186 86.0113 19.8186C82.9304 19.8186 80.0801 22.0716 80.0801 27.673C80.0801 33.6408 83.161 35.1937 86.0987 35.1937C87.048 35.1937 90.2163 34.7978 91.1085 30.3823H86.2996L86.299 26.6996ZM23.7091 18.6623C19.217 18.6623 16.51 22.4072 16.51 27.5524C16.51 32.6982 19.217 36.4425 23.7091 36.4425C28.2018 36.4425 30.9083 32.6975 30.9083 27.5524C30.9083 22.4072 28.2012 18.6623 23.7091 18.6623ZM35.3377 24.5029H37.4359V26.4806H37.4867C38.0181 25.6789 39.0287 24.1024 41.4307 24.1024C44.945 24.1024 47.4499 27.2515 47.4499 31.1807C47.4499 34.5212 45.6283 38.883 41.1275 38.883C39.358 38.883 38.1954 38.0007 37.6138 37.0121H37.563V44.0157C36.8214 44.0144 36.0799 44.0144 35.3383 44.0157L35.3377 24.5029ZM40.9601 36.8509C43.3875 36.8509 45.0325 34.628 45.0325 31.5543C45.0325 29.7634 44.348 26.2132 40.9099 26.2132C37.6988 26.2132 37.3448 29.8755 37.3448 32.1469C37.3441 35.8624 39.544 36.8509 40.9601 36.8509ZM60.9126 34.0984C60.8363 34.767 60.2293 36.7447 58.5621 37.9213C57.9551 38.3487 57.0957 38.883 54.9715 38.883C51.2551 38.883 49.0558 35.9168 49.0558 31.8795C49.0558 27.5498 51.0275 24.1018 55.4012 24.1018C59.2193 24.1018 61.0887 27.3085 61.0887 32.2544H51.4318C51.4318 35.1669 52.7208 36.8509 55.2741 36.8509C57.3722 36.8509 58.6104 35.1406 58.6867 34.0984H60.9126ZM58.5546 30.3829C58.4288 28.2177 57.5694 26.2132 54.8636 26.2132C52.8157 26.2132 51.198 28.2177 51.198 30.3829H58.5546ZM73.3857 38.4818H71.161V29.8755C71.161 27.4429 70.5032 26.2132 68.33 26.2132C67.0657 26.2132 64.8398 27.068 64.8398 30.8641V38.4818H62.6152V24.5023H64.714V26.48H64.7648C65.2441 25.732 66.4829 24.1018 68.7584 24.1018C70.8064 24.1018 73.3857 24.9841 73.3857 28.9663V38.4818Z" fill="#AEB0B2"/>
<path fill-rule="evenodd" clip-rule="evenodd" d="M23.6583 39.0027C18.008 39.0027 15.2297 35.3639 14.1459 31.5613C15.3692 37.7323 21.9793 43.7729 42.8333 46.4677C62.5365 49.0131 75.3754 42.6303 79.7075 39.6602C79.7075 39.6602 82.6347 38.2993 80.8787 40.4029C80.8787 40.4029 68.4695 52.5325 44.1211 52.6551C19.7726 52.779 0.457564 39.7841 0.574749 26.6659C0.457564 13.5484 19.7726 0.552768 44.1211 0.67666C68.4695 0.800553 80.8787 12.9289 80.8787 12.9289C82.6347 15.0331 79.7075 13.6716 79.7075 13.6716C75.376 10.7015 62.5917 4.85164 42.8333 6.86473C23.4017 8.84504 17.0582 15.825 14.9513 20.5283C14.1403 22.3382 13.7739 24.0445 13.6821 25.7639C14.2073 21.2769 16.8455 15.9856 23.6583 15.9856C31.3758 15.9856 33.7375 22.7747 33.7375 27.4938C33.7375 32.2135 31.3758 39.0027 23.6583 39.0027ZM102.111 34.4652H112.391V38.4239H97.7912V16.5637H102.111V34.4652ZM86.2482 26.6416H94.8876V38.4245H92.0076L91.5754 35.6845C90.4817 37.0237 88.8982 39.0027 85.1259 39.0027C80.144 39.0027 75.6222 35.2269 75.6222 27.5541C75.6222 21.587 78.7607 15.9548 85.7305 15.9856C92.0665 15.9856 94.572 20.3388 94.8021 23.3536H90.4823C90.4823 22.5007 89.0135 19.7607 85.9605 19.7607C82.8796 19.7607 80.0293 22.0143 80.0293 27.6157C80.0293 33.5835 83.1102 35.1365 86.0479 35.1365C86.9972 35.1365 90.1655 34.7399 91.0577 30.325H86.2488L86.2482 26.6416ZM23.6583 18.6044C19.1662 18.6044 16.4592 22.3493 16.4592 27.4945C16.4592 32.6403 19.1662 36.3839 23.6583 36.3839C28.1511 36.3839 30.8575 32.6403 30.8575 27.4945C30.8575 22.3487 28.1504 18.6044 23.6583 18.6044ZM35.2869 24.445H37.3857V26.4227H37.436C37.9667 25.621 38.978 24.0438 41.3799 24.0438C44.8943 24.0438 47.3992 27.1936 47.3992 31.1227C47.3992 34.4632 45.5769 38.825 41.0768 38.825C39.3072 38.825 38.144 37.9427 37.5631 36.9542C37.5461 36.9529 37.5291 36.9529 37.5122 36.9542V43.9564H35.2876L35.2869 24.445ZM40.9093 36.7929C43.3367 36.7929 44.9811 34.5701 44.9811 31.4964C44.9811 29.7055 44.2966 26.1552 40.8585 26.1552C37.6474 26.1552 37.2934 29.8163 37.2934 32.089C37.2934 35.8044 39.4932 36.7929 40.9093 36.7929ZM60.8618 34.0404C60.7868 34.7091 60.1798 36.6868 58.5113 37.8621C57.9043 38.2895 57.0443 38.825 54.9207 38.825C51.2043 38.825 49.0044 35.8588 49.0044 31.8215C49.0044 27.4918 50.9761 24.0438 55.3504 24.0438C59.1673 24.0438 61.0379 27.2513 61.0379 32.1958H51.381C51.381 35.1096 52.6706 36.7936 55.2239 36.7936C57.3221 36.7936 58.5603 35.0834 58.6365 34.0411L60.8618 34.0404ZM58.5038 30.325C58.3774 28.1598 57.5186 26.1552 54.8128 26.1552C52.7649 26.1552 51.1472 28.1598 51.1472 30.325H58.5038ZM73.3349 38.4239H71.1102V29.8163C71.1102 27.3837 70.4524 26.1552 68.2779 26.1552C67.0137 26.1552 64.789 27.01 64.789 30.8061V38.4239H62.5644V24.4443H64.6632V26.422H64.714C65.1933 25.6741 66.4334 24.0432 68.7076 24.0432C70.7556 24.0432 73.3349 24.9255 73.3349 28.9084V38.4239Z" fill="#A8AAAC"/>
<path fill-rule="evenodd" clip-rule="evenodd" d="M23.606 38.9467C17.9557 38.9467 15.1767 35.3079 14.0935 31.5066C15.3175 37.6776 21.9269 43.7182 42.7815 46.413C62.4847 48.9584 75.3236 42.5756 79.6551 39.6055C79.6551 39.6055 82.5823 38.2446 80.8264 40.3482C80.8264 40.3482 68.4172 52.4765 44.0693 52.6004C19.7209 52.7243 0.405812 39.7294 0.522997 26.6105C0.405192 13.493 19.7203 0.498727 44.0687 0.621963C68.4172 0.745856 80.8257 12.8742 80.8257 12.8742C82.5817 14.9778 79.6545 13.6163 79.6545 13.6163C75.323 10.6461 62.5387 4.79629 42.7809 6.81003C23.3493 8.79034 17.0058 15.7703 14.8989 20.4736C14.0879 22.2835 13.7215 23.9898 13.6297 25.7092C14.1549 21.2222 16.7925 15.9309 23.606 15.9309C31.3234 15.9309 33.6845 22.72 33.6845 27.4398C33.6845 32.1595 31.3241 38.9467 23.606 38.9467ZM102.059 34.4105H112.339V38.3692C107.473 38.3679 102.606 38.3679 97.7388 38.3692V16.509H102.059V34.4105ZM86.1958 26.5869H94.8352V38.3698C93.8761 38.3685 92.9156 38.3685 91.9552 38.3698C91.8114 37.4554 91.6669 36.5429 91.5243 35.6285C90.4293 36.969 88.8458 38.9467 85.0736 38.9467C80.0916 38.9467 75.571 35.1722 75.571 27.4994C75.571 21.5323 78.7096 15.9001 85.6781 15.9309C92.0141 15.9309 94.5197 20.2848 94.7497 23.2989H90.43C90.43 22.446 88.9611 19.7066 85.9093 19.7066C82.8272 19.7066 79.9769 21.9596 79.9769 27.5617C79.9769 33.5295 83.0578 35.0811 85.9955 35.0811C86.946 35.0811 90.1131 34.6852 91.0053 30.2709H86.1964L86.1958 26.5869ZM23.606 18.549C19.1133 18.549 16.4068 22.294 16.4068 27.4391C16.4068 32.5836 19.1139 36.3285 23.606 36.3285C28.0981 36.3285 30.8051 32.5836 30.8051 27.4391C30.8051 22.294 28.0987 18.549 23.606 18.549ZM35.2346 24.3896H37.3334V26.3673H37.3842C37.9149 25.5656 38.9262 23.9885 41.3282 23.9885C44.8419 23.9885 47.3468 27.1369 47.3468 31.0661C47.3468 34.4079 45.5252 38.7697 41.0244 38.7697C39.2548 38.7697 38.0923 37.8874 37.5107 36.8982H37.4598V43.9017H35.2352L35.2346 24.3896ZM40.857 36.7382C43.2838 36.7382 44.9287 34.5154 44.9287 31.4417C44.9287 29.6508 44.2442 26.1005 40.8061 26.1005C37.5956 26.1005 37.241 29.7623 37.241 32.0349C37.241 35.7497 39.4408 36.7382 40.857 36.7382ZM60.8094 33.9857C60.7344 34.6544 60.1274 36.6321 58.4589 37.8074C57.8519 38.2348 56.9925 38.7703 54.8683 38.7703C51.1519 38.7703 48.9527 35.8028 48.9527 31.7668C48.9527 27.4371 50.925 23.9885 55.298 23.9885C59.1161 23.9885 60.9868 27.1959 60.9868 32.1405H51.3286C51.3286 35.0542 52.6176 36.7382 55.1715 36.7382C57.2697 36.7382 58.5079 35.028 58.5842 33.9857H60.8094ZM58.4515 30.2703C58.325 28.1051 57.4662 26.1005 54.7611 26.1005C52.7131 26.1005 51.0949 28.1058 51.0949 30.2703H58.4515ZM73.2825 38.3692C72.5416 38.3679 71.7988 38.3679 71.0578 38.3692V29.7616C71.0578 27.329 70.4 26.0999 68.2268 26.0999C66.9626 26.0999 64.7379 26.9553 64.7379 30.7514V38.3692C63.996 38.3679 63.254 38.3679 62.512 38.3692V24.3896H64.6108V26.3673H64.6617C65.1422 25.6187 66.381 23.9885 68.6552 23.9885C70.7032 23.9885 73.2825 24.8708 73.2825 28.8524V38.3692Z" fill="#A2A4A6"/>
<path fill-rule="evenodd" clip-rule="evenodd" d="M23.5523 38.891C17.902 38.891 15.123 35.2523 14.0398 31.4509C15.2637 37.6219 21.8732 43.6625 42.7278 46.3573C62.431 48.9027 75.2699 42.52 79.6014 39.5498C79.6014 39.5498 82.5286 38.189 80.7727 40.2925C80.7727 40.2925 68.3634 52.4209 44.0156 52.5448C19.6666 52.6687 0.352101 39.6737 0.469286 26.5549C0.351481 13.4374 19.6666 0.442416 44.015 0.566309C68.3634 0.689545 80.772 12.8179 80.772 12.8179C82.5279 14.9221 79.6008 13.5606 79.6008 13.5606C75.2693 10.5905 62.485 4.73998 42.7272 6.75372C23.2956 8.73469 16.9521 15.7146 14.8452 20.4173C14.0342 22.2272 13.6678 23.9335 13.576 25.6529C14.1012 21.1659 16.7388 15.8746 23.5523 15.8746C31.2697 15.8746 33.6308 22.6637 33.6308 27.3834C33.6314 32.1018 31.2703 38.891 23.5523 38.891ZM102.005 34.3549H112.285V38.3122H97.6851V16.4527H102.005V34.3549ZM86.1421 26.5306H94.7815V38.3129H91.9015C91.7577 37.3997 91.6132 36.4872 91.4706 35.5728C90.3756 36.912 88.7921 38.891 85.0198 38.891C80.0379 38.891 75.5161 35.1166 75.5161 27.4438C75.5161 21.4766 78.6559 15.8444 85.6244 15.8746C91.9604 15.8746 94.4659 20.2285 94.696 23.2426H90.3762C90.3762 22.3904 88.9074 19.6497 85.8556 19.6497C82.7735 19.6497 79.9232 21.9033 79.9232 27.5054C79.9232 33.4719 83.0041 35.0248 85.9418 35.0248C86.8923 35.0248 90.0594 34.6289 90.9516 30.2146H86.1427L86.1421 26.5306ZM23.5523 18.4933C19.0595 18.4933 16.3531 22.2383 16.3531 27.3841C16.3531 32.5286 19.0602 36.2735 23.5523 36.2735C28.0443 36.2735 30.7514 32.5286 30.7514 27.3841C30.752 22.2383 28.0443 18.4933 23.5523 18.4933ZM35.1815 24.334H37.2796V26.3117H37.3305C37.8612 25.51 38.8725 23.9335 41.2745 23.9335C44.7882 23.9335 47.2931 27.0819 47.2931 31.0111C47.2931 34.3529 45.4714 38.7147 40.9713 38.7147C39.2017 38.7147 38.0386 37.8324 37.4576 36.8432H37.4068V43.8467H35.1821L35.1815 24.334ZM40.8033 36.6826C43.23 36.6826 44.875 34.4584 44.875 31.3847C44.875 29.5952 44.1905 26.0449 40.7524 26.0449C37.5413 26.0449 37.1879 29.7066 37.1879 31.9793C37.1879 35.6941 39.3871 36.6826 40.8033 36.6826ZM60.7557 33.9288C60.6807 34.5974 60.0737 36.5751 58.4052 37.7517C57.7982 38.1791 56.9388 38.7147 54.8152 38.7147C51.0988 38.7147 48.8989 35.7472 48.8989 31.7112C48.8989 27.3815 50.8713 23.9328 55.2443 23.9328C59.0624 23.9328 60.9318 27.1402 60.9318 32.0848H51.2749C51.2749 34.9986 52.5645 36.6826 55.1178 36.6826C57.216 36.6826 58.4554 34.9724 58.5304 33.9288H60.7557ZM58.3978 30.2146C58.2713 28.0495 57.4125 26.0449 54.7074 26.0449C52.6594 26.0449 51.0411 28.0501 51.0411 30.2146H58.3978ZM73.2288 38.3129H71.0041V29.7066C71.0041 27.274 70.3463 26.0449 68.1731 26.0449C66.9089 26.0449 64.683 26.9003 64.683 30.6951V38.3129H62.4583V24.334H64.5571V26.3117H64.6079C65.0885 25.5637 66.3273 23.9335 68.6015 23.9335C70.6495 23.9335 73.2288 24.8158 73.2288 28.7974V38.3129Z" fill="#9C9EA0"/>
<path fill-rule="evenodd" clip-rule="evenodd" d="M23.5015 38.8363C17.8512 38.8363 15.0722 35.1976 13.989 31.3962C15.2123 37.5673 21.8224 43.6078 42.677 46.3027C62.3802 48.848 75.2191 42.4653 79.5506 39.4951C79.5506 39.4951 82.4778 38.1343 80.7219 40.2378C80.7219 40.2378 68.3127 52.3662 43.9642 52.4901C19.6158 52.6133 0.30132 39.619 0.418505 26.5002C0.3007 13.3827 19.6158 0.387729 43.9642 0.511621C68.3127 0.635514 80.7219 12.7639 80.7219 12.7639C82.4778 14.8681 79.5506 13.5066 79.5506 13.5066C75.2191 10.5364 62.4348 4.6866 42.677 6.70034C23.2448 8.68066 16.9019 15.6599 14.7951 20.3633C13.9841 22.1731 13.6176 23.8794 13.5259 25.5989C14.051 21.1119 16.6886 15.8205 23.5021 15.8205C31.2196 15.8205 33.5806 22.6097 33.5806 27.3281C33.5806 32.0472 31.2189 38.8363 23.5015 38.8363ZM101.954 34.3008H112.234V38.2582H97.6343V16.3987H101.954V34.3008ZM86.0913 26.4759H94.7308V38.2582H91.8507L91.4186 35.5181C90.3248 36.8573 88.7413 38.8363 84.969 38.8363C79.9871 38.8363 75.4665 35.0606 75.4665 27.3891C75.4665 21.4219 78.6045 15.7891 85.5736 15.8199C91.9096 15.8199 94.4152 20.1738 94.6452 23.1872H90.3255C90.3255 22.335 88.8566 19.595 85.8036 19.595C82.7227 19.595 79.8724 21.8487 79.8724 27.4507C79.8724 33.4172 82.9533 34.9701 85.891 34.9701C86.8415 34.9701 90.0086 34.5742 90.9008 30.1599H86.0919L86.0913 26.4759ZM23.5015 18.4387C19.0088 18.4387 16.3023 22.1836 16.3023 27.3281C16.3023 32.4739 19.0094 36.2182 23.5015 36.2182C27.9936 36.2182 30.7006 32.4732 30.7006 27.3281C30.7006 22.1836 27.9942 18.4387 23.5015 18.4387ZM35.1307 24.2793H37.2289V26.2576H37.2797C37.8105 25.4553 38.8217 23.8788 41.2237 23.8788C44.7374 23.8788 47.2429 27.0279 47.2429 30.957C47.2429 34.2989 45.4207 38.6607 40.9205 38.6607C39.151 38.6607 37.9878 37.7783 37.4062 36.7892H37.3554V43.7927H35.1307V24.2793ZM40.7525 36.6279C43.1799 36.6279 44.8248 34.4037 44.8248 31.33C44.8248 29.5405 44.1403 25.9895 40.7023 25.9895C37.4918 25.9895 37.1377 29.6513 37.1377 31.9226C37.1371 35.64 39.3363 36.6279 40.7525 36.6279ZM60.7049 33.8754C60.6299 34.5427 60.0229 36.5204 58.3538 37.697C57.7468 38.1244 56.8874 38.66 54.7638 38.66C51.0474 38.66 48.8482 35.6925 48.8482 31.6565C48.8482 27.3268 50.8199 23.8781 55.1935 23.8781C59.0116 23.8781 60.881 27.0862 60.881 32.0308H51.2241C51.2241 34.9445 52.5131 36.6286 55.067 36.6286C57.1652 36.6286 58.4034 34.9183 58.4797 33.8761C59.2218 33.8741 59.964 33.8741 60.7049 33.8754ZM58.3476 30.1599C58.2211 27.9948 57.3618 25.9895 54.6566 25.9895C52.6086 25.9895 50.9904 27.9948 50.9904 30.1599H58.3476ZM73.178 38.2582H70.9534V29.6519C70.9534 27.2193 70.2955 25.9902 68.1223 25.9902C66.8581 25.9902 64.6334 26.8456 64.6334 30.6404V38.2582H62.4075V24.2793H64.5063V26.2576H64.5572C65.0377 25.5091 66.2765 23.8788 68.5508 23.8788C70.5987 23.8788 73.178 24.7611 73.178 28.7434V38.2582Z" fill="#989A9C"/>
<path fill-rule="evenodd" clip-rule="evenodd" d="M23.4474 38.7784C17.7971 38.7784 15.0188 35.1396 13.935 31.3383C15.1589 37.508 21.7684 43.5499 42.623 46.2434C62.3262 48.7901 75.1651 42.4073 79.4966 39.4372C79.4966 39.4372 82.4237 38.075 80.6678 40.1799C80.6678 40.1799 68.2586 52.3082 43.9101 52.4308C19.5617 52.5547 0.246627 39.5611 0.363812 26.4422C0.246627 13.3234 19.5617 0.329135 43.9101 0.453027C68.2586 0.57692 80.6678 12.7053 80.6678 12.7053C82.4237 14.8095 79.4966 13.448 79.4966 13.448C75.1651 10.4778 62.3807 4.62801 42.623 6.6411C23.1907 8.62075 16.8472 15.6013 14.7404 20.304C13.9294 22.1139 13.5629 23.8202 13.4712 25.5396C13.9963 21.0526 16.6339 15.7613 23.4468 15.7613C31.1643 15.7613 33.5259 22.5505 33.5259 27.2695C33.5266 31.9886 31.1649 38.7784 23.4474 38.7784ZM101.9 34.2422H112.18V38.1996H97.5803V16.3401H101.9V34.2422ZM86.0372 26.4167H94.6767V38.1996H91.7967C91.6528 37.2864 91.5084 36.3727 91.3657 35.4595C90.2708 36.7987 88.6872 38.7777 84.915 38.7777C79.9331 38.7777 75.4125 35.002 75.4125 27.3305C75.4125 21.3627 78.551 15.7305 85.5195 15.7613C91.8556 15.7613 94.3611 20.1146 94.5911 23.1293H90.2714C90.2714 22.2765 88.8026 19.5371 85.7495 19.5371C82.6686 19.5371 79.8184 21.7901 79.8184 27.3914C79.8184 33.3593 82.8993 34.9122 85.837 34.9122C86.7875 34.9122 89.9546 34.5162 90.8468 30.102H86.0379L86.0372 26.4167ZM23.4474 18.3801C18.9553 18.3801 16.2483 22.1244 16.2483 27.2695C16.2483 32.4153 18.9553 36.1596 23.4474 36.1596C27.9401 36.1596 30.6465 32.4147 30.6465 27.2695C30.6465 22.1244 27.9401 18.3801 23.4474 18.3801ZM35.076 24.2207H37.1748V26.1984H37.2256C37.7564 25.3967 38.7676 23.8202 41.1696 23.8202C44.6833 23.8202 47.1882 26.9693 47.1882 30.8984C47.1882 34.2403 45.3666 38.6008 40.8658 38.6008C39.0963 38.6008 37.9337 37.7184 37.3521 36.7299H37.3013V43.7334H35.0766L35.076 24.2207ZM40.6984 36.5693C43.1252 36.5693 44.7701 34.3451 44.7701 31.2714C44.7701 29.4806 44.0856 25.9309 40.6476 25.9309C37.4371 25.9309 37.0824 29.5927 37.0824 31.864C37.083 35.5801 39.2823 36.5693 40.6984 36.5693ZM60.6509 33.8155C60.5758 34.4841 59.9688 36.4618 58.2997 37.6385C57.6927 38.0659 56.8334 38.6001 54.7098 38.6001C50.9933 38.6001 48.7941 35.6339 48.7941 31.5979C48.7941 27.2669 50.7658 23.8195 55.1395 23.8195C58.9576 23.8195 60.8282 27.0276 60.8282 31.9722H51.17C51.17 34.8846 52.4591 36.57 55.0123 36.57C57.1105 36.57 58.3493 34.8597 58.425 33.8161L60.6509 33.8155ZM58.2935 30.1C58.167 27.9362 57.3077 25.9309 54.6025 25.9309C52.5546 25.9309 50.9363 27.9362 50.9363 30.1H58.2935ZM73.1239 38.1996H70.8993V29.5933C70.8993 27.1607 70.2414 25.9316 68.0683 25.9316C66.804 25.9316 64.5794 26.7871 64.5794 30.5818V38.1996H62.3535V24.2207H64.4523V26.1984H64.5031C64.9836 25.4505 66.2224 23.8202 68.4967 23.8202C70.5446 23.8202 73.1239 24.7019 73.1239 28.6848V38.1996Z" fill="#929496"/>
<path fill-rule="evenodd" clip-rule="evenodd" d="M23.3966 38.7224C17.7457 38.7224 14.9674 35.0836 13.8842 31.281C15.1075 37.452 21.7176 43.4926 42.5722 46.1874C62.2754 48.7341 75.1143 42.3513 79.4458 39.3812C79.4458 39.3812 82.3729 38.019 80.617 40.1239C80.617 40.1239 68.2078 52.2523 43.86 52.3748C19.5109 52.4994 0.195845 39.5044 0.31303 26.3863C0.195845 13.2674 19.5109 0.272494 43.8594 0.396387C68.2078 0.519624 80.6164 12.6486 80.6164 12.6486C82.3723 14.7522 79.4452 13.3913 79.4452 13.3913C75.1137 10.4212 62.3293 4.57136 42.5716 6.58445C23.1393 8.56476 16.7964 15.544 14.6896 20.2474C13.8786 22.0572 13.5122 23.7635 13.4204 25.483C13.9456 20.996 16.5831 15.7046 23.3966 15.7046C31.1141 15.7046 33.4752 22.4938 33.4752 27.2129C33.4758 31.9326 31.1141 38.7224 23.3966 38.7224ZM101.849 34.1862H112.129V38.1436H97.5295V16.2841H101.849V34.1862ZM85.9865 26.3614H94.6259V38.1436H91.7459C91.602 37.2305 91.4576 36.3167 91.315 35.4035C90.22 36.7428 88.6364 38.7218 84.8642 38.7218C79.8823 38.7218 75.3604 34.946 75.3604 27.2745C75.3604 21.3067 78.5002 15.6745 85.4687 15.7046C91.8048 15.7046 94.3103 20.0586 94.5403 23.0726H90.2206C90.2206 22.2205 88.7518 19.4804 85.7 19.4804C82.6178 19.4804 79.7676 21.7334 79.7676 27.3348C79.7676 33.3026 82.8485 34.8555 85.7862 34.8555C86.7367 34.8555 89.9038 34.4596 90.796 30.044H85.9871L85.9865 26.3614ZM23.3966 18.3234C18.9039 18.3234 16.1975 22.0684 16.1975 27.2135C16.1975 32.3593 18.9045 36.1036 23.3966 36.1036C27.8887 36.1036 30.5958 32.3587 30.5958 27.2135C30.5964 22.0684 27.8887 18.3234 23.3966 18.3234ZM35.0258 24.1641H37.124V26.1424H37.1749C37.7056 25.3407 38.7169 23.7635 41.1188 23.7635C44.6325 23.7635 47.1374 26.9126 47.1374 30.8418C47.1374 34.1823 45.3158 38.5441 40.8157 38.5441C39.0461 38.5441 37.8829 37.6618 37.302 36.6733H37.2511V43.6768C36.5096 43.6755 35.768 43.6755 35.0265 43.6768L35.0258 24.1641ZM40.6476 36.5127C43.0744 36.5127 44.7193 34.2898 44.7193 31.2161C44.7193 29.4252 44.0348 25.8756 40.5968 25.8756C37.3857 25.8756 37.0316 29.538 37.0316 31.8093C37.0322 35.5242 39.2315 36.5127 40.6476 36.5127ZM60.6001 33.7595C60.5251 34.4281 59.9181 36.4058 58.2489 37.5825C57.6419 38.0086 56.7826 38.5441 54.659 38.5441C50.9425 38.5441 48.7427 35.5779 48.7427 31.5406C48.7427 27.2109 50.715 23.7629 55.0887 23.7629C58.9068 23.7629 60.7762 26.9697 60.7762 31.9155H51.1193C51.1193 34.828 52.4089 36.512 54.9622 36.512C57.0603 36.512 58.2992 34.8018 58.3748 33.7595H60.6001ZM58.2427 30.044C58.1163 27.8789 57.2569 25.875 54.5517 25.875C52.5038 25.875 50.8855 27.8795 50.8855 30.044H58.2427ZM73.0732 38.1436H70.8485V29.5373C70.8485 27.1047 70.1907 25.875 68.0162 25.875C66.7532 25.875 64.5273 26.7298 64.5273 30.5258V38.1436H62.3027V24.1641H64.4015V26.1424H64.4523C64.9328 25.3938 66.1716 23.7635 68.4459 23.7635C70.4938 23.7635 73.0732 24.6459 73.0732 28.6281V38.1436Z" fill="#8D8E91"/>
<path fill-rule="evenodd" clip-rule="evenodd" d="M23.3452 38.6648C17.6949 38.6648 14.9166 35.026 13.8328 31.2234C15.0561 37.3944 21.6662 43.435 42.5208 46.1298C62.224 48.6765 75.0629 42.2924 79.3944 39.3223C79.3944 39.3223 82.3203 37.9614 80.5656 40.0663C80.5656 40.0663 68.1564 52.1946 43.808 52.3172C19.4595 52.4411 0.14507 39.4462 0.262255 26.328C0.14445 13.2098 19.4595 0.214877 43.808 0.33877C68.1564 0.462006 80.5656 12.5904 80.5656 12.5904C82.3203 14.6946 79.3944 13.3331 79.3944 13.3331C75.0629 10.3629 62.2786 4.51244 42.5208 6.52618C23.0885 8.50649 16.7457 15.4864 14.6382 20.1891C13.8272 21.999 13.4614 23.7053 13.369 25.4247C13.8942 20.9377 16.5324 15.6464 23.3452 15.6464C31.0627 15.6464 33.4244 22.4355 33.4244 27.1546C33.4244 31.875 31.0627 38.6648 23.3452 38.6648ZM101.798 34.1286C105.225 34.1273 108.652 34.1273 112.078 34.1286V38.086H97.4781V16.2258H101.798V34.1286ZM85.9351 26.3031H94.5745V38.086H91.6945L91.2623 35.3459C90.1686 36.6851 88.5851 38.6641 84.8128 38.6641C79.8309 38.6641 75.3103 34.8884 75.3103 27.2169C75.3103 21.2491 78.4482 15.6162 85.4173 15.647C91.7534 15.647 94.2589 20.001 94.4889 23.015H90.1692C90.1692 22.1628 88.7004 19.4221 85.6474 19.4221C82.5665 19.4221 79.7162 21.6758 79.7162 27.2772C79.7162 33.245 82.7971 34.7979 85.7348 34.7979C86.6853 34.7979 89.8524 34.402 90.7446 29.9864H85.9357L85.9351 26.3031ZM23.3452 18.2658C18.8531 18.2658 16.1461 22.0108 16.1461 27.1559C16.1461 32.3017 18.8531 36.046 23.3452 36.046C27.8379 36.046 30.5444 32.3011 30.5444 27.1559C30.5444 22.0108 27.8379 18.2658 23.3452 18.2658ZM34.9745 24.1065H37.0726V26.0841H37.1235C37.6542 25.2824 38.6655 23.7059 41.0675 23.7059C44.5811 23.7059 47.0867 26.855 47.0867 30.7842C47.0867 34.1247 45.2644 38.4865 40.7643 38.4865C38.9947 38.4865 37.8315 37.6042 37.2499 36.6157H37.1991V43.6192C36.4576 43.6179 35.716 43.6179 34.9745 43.6192V24.1065ZM40.5962 36.4551C43.0236 36.4551 44.6686 34.2322 44.6686 31.1585C44.6686 29.3676 43.9841 25.818 40.546 25.818C37.3349 25.818 36.9815 29.4804 36.9815 31.7517C36.9809 35.4665 39.1801 36.4551 40.5962 36.4551ZM60.5487 33.7019C60.4737 34.3705 59.8667 36.3482 58.1976 37.5249C57.5905 37.9523 56.7312 38.4865 54.6076 38.4865C50.8912 38.4865 48.6919 35.5203 48.6919 31.483C48.6919 27.1533 50.6636 23.7053 55.0373 23.7053C58.8554 23.7053 60.7248 26.9121 60.7248 31.8579C57.5068 31.8566 54.287 31.8566 51.0679 31.8579C51.0679 34.7704 52.3569 36.4544 54.9108 36.4544C57.009 36.4544 58.2472 34.7442 58.3228 33.7019H60.5487ZM58.1913 29.9864C58.0649 27.8213 57.2055 25.8173 54.5003 25.8173C52.4524 25.8173 50.8341 27.8219 50.8341 29.9864H58.1913ZM73.0218 38.086H70.7971V29.4797C70.7971 27.0471 70.1393 25.8173 67.9661 25.8173C66.7018 25.8173 64.4759 26.6721 64.4759 30.4682V38.086H62.2513V24.1065H64.3501V26.0841H64.4009C64.8814 25.3362 66.1203 23.7059 68.3945 23.7059C70.4425 23.7059 73.0218 24.5876 73.0218 28.5705V38.086Z" fill="#87898B"/>
<path fill-rule="evenodd" clip-rule="evenodd" d="M23.2951 38.6101C17.6448 38.6101 14.8658 34.9713 13.7826 31.1687C15.0059 37.3397 21.616 43.3803 42.4706 46.0751C62.1738 48.6205 75.0127 42.2377 79.3442 39.2676C79.3442 39.2676 82.2714 37.9067 80.5155 40.0103C80.5155 40.0103 68.1062 52.1386 43.7578 52.2625C19.4094 52.3864 0.0942829 39.3915 0.211468 26.2733C0.0942829 13.1551 19.4094 0.16019 43.7578 0.284082C68.1062 0.407974 80.5155 12.5363 80.5155 12.5363C82.2714 14.6405 79.3442 13.279 79.3442 13.279C75.0127 10.3089 62.2284 4.45906 42.4706 6.47215C23.0384 8.45181 16.6949 15.4324 14.588 20.1357C13.777 21.9456 13.4106 23.6519 13.3188 25.3707C13.844 20.8837 16.4816 15.5923 23.2944 15.5923C31.0119 15.5923 33.3736 22.3815 33.3736 27.1012C33.3736 31.8209 31.0125 38.6101 23.2951 38.6101ZM101.748 34.0726H112.028V38.0313H97.4279V16.1712H101.748V34.0726ZM85.8849 26.2484H94.5243V38.0313H91.6443C91.5005 37.1168 91.356 36.2044 91.2134 35.2912C90.1184 36.6305 88.5349 38.6095 84.7626 38.6095C79.7807 38.6095 75.2601 34.8337 75.2601 27.1609C75.2601 21.1937 78.3987 15.5615 85.3672 15.5923C91.7032 15.5923 94.2087 19.9463 94.4388 22.9603H90.119C90.119 22.1075 88.6502 19.3681 85.5972 19.3681C82.5163 19.3681 79.666 21.6211 79.666 27.2231C79.666 33.191 82.7469 34.7439 85.6846 34.7439C86.6351 34.7439 89.8022 34.3473 90.6944 29.9324H85.8855L85.8849 26.2484ZM23.2951 18.2111C18.803 18.2111 16.0959 21.9561 16.0959 27.1012C16.0959 32.247 18.803 35.9907 23.2951 35.9907C27.7878 35.9907 30.4942 32.247 30.4942 27.1012C30.4942 21.9561 27.7878 18.2111 23.2951 18.2111ZM34.9237 24.0518H37.0218V26.0295H37.0727C37.604 25.2278 38.6153 23.6506 41.0167 23.6506C44.5304 23.6506 47.0353 26.7997 47.0353 30.7295C47.0353 34.07 45.2136 38.4318 40.7128 38.4318C38.9433 38.4318 37.7807 37.5495 37.1992 36.561C37.1822 36.5597 37.1652 36.5597 37.1483 36.561V43.5632H34.9237V24.0518ZM40.5461 36.4004C42.9735 36.4004 44.6184 34.1775 44.6184 31.1038C44.6184 29.3129 43.9339 25.7627 40.4958 25.7627C37.2853 25.7627 36.9307 29.4237 36.9307 31.6964C36.9307 35.4118 39.1299 36.4004 40.5461 36.4004ZM60.4985 33.6472C60.4235 34.3158 59.8165 36.2935 58.1474 37.4689C57.5404 37.8963 56.681 38.4318 54.5574 38.4318C50.841 38.4318 48.6418 35.4656 48.6418 31.4283C48.6418 27.0986 50.6134 23.6506 54.9871 23.6506C58.8052 23.6506 60.6746 26.858 60.6746 31.8026H51.0177C51.0177 34.7163 52.3067 36.4004 54.86 36.4004C56.9582 36.4004 58.197 34.6901 58.2726 33.6479L60.4985 33.6472ZM58.1412 29.9317C58.0147 27.7666 57.1553 25.762 54.4502 25.762C52.4028 25.762 50.7846 27.7666 50.7846 29.9317H58.1412ZM72.9716 38.0313H70.7469V29.4237C70.7469 26.9924 70.0891 25.7627 67.9159 25.7627C66.6517 25.7627 64.427 26.6175 64.427 30.4135V38.0313H62.2011V24.0518H64.2999V26.0295H64.3507C64.8313 25.2809 66.0701 23.6506 68.3443 23.6506C70.3923 23.6506 72.9716 24.5323 72.9716 28.5145V38.0313Z" fill="#828385"/>
<path fill-rule="evenodd" clip-rule="evenodd" d="M23.2394 38.5518C17.5885 38.5518 14.8101 34.9131 13.7269 31.1117C14.9503 37.2827 21.5604 43.3233 42.415 46.0181C62.1182 48.5635 74.9571 42.1808 79.2886 39.2106C79.2886 39.2106 82.2157 37.8498 80.4598 39.9533C80.4598 39.9533 68.0506 52.0817 43.7028 52.2056C19.3537 52.3301 0.0386188 39.3352 0.155804 26.2163C0.0386188 13.0982 19.3537 0.103219 43.7021 0.226456C68.0506 0.350348 80.4592 12.4787 80.4592 12.4787C82.2151 14.5829 79.2879 13.2214 79.2879 13.2214C74.9564 10.2513 62.1721 4.40078 42.4143 6.41452C22.9821 8.39484 16.6392 15.3748 14.5324 20.0774C13.7214 21.8873 13.3549 23.5936 13.2632 25.313C13.7883 20.826 16.4259 15.5347 23.2394 15.5347C30.9569 15.5347 33.3179 22.3239 33.3179 27.0436C33.3186 31.7633 30.9569 38.5518 23.2394 38.5518ZM101.692 34.0157H111.972V37.973H97.3723V16.1142H101.692V34.0157ZM85.8292 26.1914H94.4687V37.973H91.5886C91.4448 37.0599 91.3003 36.1474 91.1577 35.2329C90.0628 36.5735 88.4792 38.5512 84.707 38.5512C79.7251 38.5512 75.2032 34.7767 75.2032 27.1039C75.2032 21.1367 78.343 15.5046 85.3115 15.5347C91.6476 15.5347 94.1531 19.8886 94.3831 22.9027H90.0634C90.0634 22.0499 88.5945 19.3098 85.5428 19.3098C82.4606 19.3098 79.6104 21.5628 79.6104 27.1649C79.6104 33.1327 82.6913 34.6843 85.629 34.6843C86.5795 34.6843 89.7466 34.2883 90.6388 29.8741H85.8298L85.8292 26.1914ZM23.2394 18.1535C18.7467 18.1535 16.0403 21.8985 16.0403 27.0443C16.0403 32.1887 18.7473 35.9337 23.2394 35.9337C27.7315 35.9337 30.4385 32.1887 30.4385 27.0443C30.4385 21.8985 27.7315 18.1535 23.2394 18.1535ZM34.868 23.9941H36.9668V25.9725H37.0176C37.5484 25.1708 38.5596 23.5936 40.9616 23.5936C44.4753 23.5936 46.9802 26.7421 46.9802 30.6712C46.9802 34.013 45.1586 38.3748 40.6584 38.3748C38.8889 38.3748 37.7257 37.4925 37.1447 36.5033H37.0939V43.5069H34.8692L34.868 23.9941ZM40.4904 36.3434C42.9172 36.3434 44.5621 34.1192 44.5621 31.0468C44.5621 29.256 43.8776 25.7057 40.4396 25.7057C37.2284 25.7057 36.8744 29.3667 36.8744 31.6394C36.875 35.3549 39.0743 36.3434 40.4904 36.3434ZM60.4429 33.5902C60.3678 34.2589 59.7608 36.2365 58.0917 37.4119C57.4847 37.8393 56.6254 38.3748 54.5018 38.3748C50.7853 38.3748 48.5855 35.4073 48.5855 31.3713C48.5855 27.0416 50.5578 23.593 54.9314 23.593C58.7496 23.593 60.6189 26.8004 60.6189 31.745H50.962C50.962 34.6587 52.2517 36.3427 54.805 36.3427C56.9031 36.3427 58.1419 34.6325 58.2176 33.5902C58.9598 33.5896 59.7019 33.5896 60.4429 33.5902ZM58.0855 29.8748C57.9596 27.7096 57.1003 25.705 54.3951 25.705C52.3472 25.705 50.7289 27.7096 50.7289 29.8748H58.0855ZM72.9166 37.973H70.6919V29.3667C70.6919 26.9341 70.034 25.7057 67.8596 25.7057C66.5966 25.7057 64.3707 26.5605 64.3707 30.3566V37.973H62.1461V23.9941H64.2449V25.9725H64.2957C64.7762 25.2239 66.015 23.5936 68.2893 23.5936C70.3372 23.5936 72.9166 24.4759 72.9166 28.4575V37.973Z" fill="#7C7D80"/>
<path fill-rule="evenodd" clip-rule="evenodd" d="M23.1896 38.4942C17.5393 38.4942 14.761 34.8554 13.6771 31.0541C14.9005 37.2251 21.5106 43.2657 42.3645 45.9605C62.0677 48.5059 74.9066 42.1231 79.2388 39.153C79.2388 39.153 82.1647 37.7922 80.41 39.8957C80.41 39.8957 68.0008 52.0241 43.6523 52.148C19.3039 52.2712 -0.0105659 39.2769 0.105999 26.1581C-0.0111859 13.0399 19.3039 0.0449552 43.6523 0.168848C68.0008 0.29274 80.41 12.4211 80.41 12.4211C82.1647 14.5253 79.2388 13.1638 79.2388 13.1638C74.9072 10.1936 62.1229 4.34382 42.3645 6.35691C22.9329 8.33722 16.5894 15.3172 14.4826 20.0205C13.6716 21.8304 13.3057 23.5367 13.2134 25.2561C13.7385 20.7691 16.3767 15.4778 23.1896 15.4778C30.9071 15.4778 33.2687 22.2669 33.2687 26.9853C33.2687 31.7044 30.9071 38.4942 23.1896 38.4942ZM101.642 33.958H111.922V37.9154H97.3224V16.0559H101.642V33.958ZM85.7794 26.1332H94.4189V37.9154H91.5388L91.1067 35.1753C90.013 36.5146 88.4294 38.4936 84.6572 38.4936C79.6753 38.4936 75.1534 34.7178 75.1534 27.0463C75.1534 21.0791 78.292 15.4463 85.2617 15.4771C91.5977 15.4771 94.1033 19.831 94.3333 22.8444H90.0136C90.0136 21.9923 88.5447 19.2522 85.4917 19.2522C82.4108 19.2522 79.5605 21.5059 79.5605 27.1079C79.5605 33.0744 82.6415 34.6273 85.5791 34.6273C86.5296 34.6273 89.6967 34.2314 90.589 29.8172H85.78L85.7794 26.1332ZM23.1896 18.0959C18.6975 18.0959 15.9905 21.8408 15.9905 26.9853C15.9905 32.1311 18.6975 35.8754 23.1896 35.8754C27.6823 35.8754 30.3887 32.1305 30.3887 26.9853C30.3887 21.8408 27.6823 18.0959 23.1896 18.0959ZM34.8188 23.9365H36.917V25.9142H36.9678C37.4986 25.1125 38.5098 23.5353 40.9118 23.5353C44.4255 23.5353 46.9304 26.6844 46.9304 30.6136C46.9304 33.9554 45.1088 38.3172 40.6086 38.3172C38.8391 38.3172 37.6759 37.4349 37.0943 36.4457H37.0435V43.4493H34.8188V23.9365ZM40.4406 36.2858C42.868 36.2858 44.5129 34.0616 44.5129 30.9879C44.5129 29.1983 43.8284 25.6474 40.3904 25.6474C37.1793 25.6474 36.8258 29.3091 36.8258 31.5805C36.8252 35.296 39.0245 36.2858 40.4406 36.2858ZM60.3931 33.5333C60.318 34.2006 59.711 36.1783 58.0419 37.3549C57.4349 37.7823 56.5755 38.3179 54.452 38.3179C50.7355 38.3179 48.5357 35.3504 48.5357 31.3144C48.5357 26.9847 50.508 23.536 54.8816 23.536C58.6985 23.536 60.5691 26.7441 60.5691 31.6887H50.9122C50.9122 34.6024 52.2013 36.2864 54.7551 36.2864C56.8533 36.2864 58.0915 34.5762 58.1678 33.5339C58.91 33.532 59.6521 33.532 60.3931 33.5333ZM58.0357 29.8178C57.9092 27.6526 57.0499 25.6474 54.3447 25.6474C52.2967 25.6474 50.6785 27.6526 50.6785 29.8178H58.0357ZM72.8667 37.9154H70.6421V29.3091C70.6421 26.8765 69.9842 25.6474 67.8098 25.6474C66.5468 25.6474 64.3209 26.5029 64.3209 30.2976V37.9154H62.0963V23.9365H64.1951V25.9142H64.2459C64.7264 25.1663 65.9652 23.5353 68.2395 23.5353C70.2874 23.5353 72.8667 24.4177 72.8667 28.3999V37.9154Z" fill="#76787A"/>
<path fill-rule="evenodd" clip-rule="evenodd" d="M23.1349 38.4405C17.4846 38.4405 14.7056 34.8017 13.6225 31.0004C14.8458 37.1714 21.4559 43.212 42.3105 45.9068C62.0137 48.4522 74.8526 42.0694 79.1841 39.0993C79.1841 39.0993 82.1112 37.7384 80.3553 39.842C80.3553 39.842 67.9461 51.9703 43.5976 52.0942C19.2492 52.2175 -0.0658734 39.2232 0.0513117 26.1044C-0.0658734 12.9862 19.2492 -0.00875574 43.5976 0.115137C67.9461 0.239029 80.3553 12.3674 80.3553 12.3674C82.1112 14.4716 79.1841 13.1101 79.1841 13.1101C74.8526 10.1399 62.0682 4.29011 42.3105 6.3032C22.8782 8.28351 16.5347 15.2634 14.4279 19.9668C13.6169 21.7766 13.2504 23.483 13.1587 25.2024C13.6838 20.7154 16.3214 15.424 23.1343 15.424C30.8518 15.424 33.2134 22.2139 33.2134 26.9323C33.2141 31.6513 30.8524 38.4405 23.1349 38.4405ZM101.587 33.9043H111.868V37.8617H97.2678V16.0022H101.587V33.9043ZM85.7247 26.0794H94.3642V37.8617H91.4842L91.052 35.1216C89.9583 36.4609 88.3747 38.4399 84.6025 38.4399C79.6206 38.4399 75.1 34.6641 75.1 26.9926C75.1 21.0248 78.2379 15.3926 85.207 15.4234C91.5431 15.4234 94.0486 19.7773 94.2786 22.7914H89.9589C89.9589 21.9392 88.4901 19.1992 85.437 19.1992C82.3561 19.1992 79.5059 21.4528 79.5059 27.0549C79.5059 33.0214 82.5868 34.5743 85.5245 34.5743C86.475 34.5743 89.6421 34.1783 90.5343 29.7641H85.7253L85.7247 26.0794ZM23.1349 18.0422C18.6428 18.0422 15.9358 21.7871 15.9358 26.9316C15.9358 32.0774 18.6428 35.8217 23.1349 35.8217C27.6276 35.8217 30.334 32.0768 30.334 26.9316C30.334 21.7871 27.6276 18.0422 23.1349 18.0422ZM34.7635 23.8828H36.8617V25.8612H36.9125C37.4439 25.0588 38.4551 23.4823 40.8565 23.4823C44.3702 23.4823 46.8751 26.6314 46.8751 30.5606C46.8751 33.9024 45.0535 38.2629 40.5527 38.2629C38.7831 38.2629 37.6206 37.3805 37.039 36.392H36.9882V43.3955H34.7635V23.8828ZM40.3859 36.2321C42.8133 36.2321 44.4582 34.0079 44.4582 30.9342C44.4582 29.1446 43.7737 25.5937 40.3357 25.5937C37.1252 25.5937 36.7705 29.2554 36.7705 31.5268C36.7705 35.2422 38.9698 36.2321 40.3859 36.2321ZM60.3384 33.4783C60.2621 34.1469 59.6563 36.1246 57.9872 37.3012C57.3802 37.7286 56.5209 38.2629 54.3973 38.2629C50.6808 38.2629 48.4816 35.2967 48.4816 31.2606C48.4816 26.931 50.4533 23.4823 54.8269 23.4823C58.6451 23.4823 60.5145 26.6904 60.5145 31.6349H50.8575C50.8575 34.5474 52.1466 36.2327 54.6998 36.2327C56.798 36.2327 58.0368 34.5225 58.1125 33.4789L60.3384 33.4783ZM57.981 29.7641C57.8545 27.5976 56.9952 25.5937 54.29 25.5937C52.2421 25.5937 50.6244 27.5976 50.6244 29.7641C53.0766 29.7628 55.5294 29.7628 57.981 29.7641ZM72.8121 37.8617H70.5874V29.2554C70.5874 26.8228 69.9296 25.5937 67.7564 25.5937C66.4921 25.5937 64.2662 26.4492 64.2662 30.2439V37.8617H62.0416V23.8828H64.1404V25.8612H64.1912C64.6705 25.1126 65.9105 23.4823 68.1848 23.4823C70.2327 23.4823 72.8121 24.364 72.8121 28.3469V37.8617Z" fill="#737476"/>
<path fill-rule="evenodd" clip-rule="evenodd" d="M23.0841 38.3829C17.4338 38.3829 14.6549 34.7441 13.5717 30.9428C14.795 37.1138 21.4045 43.1544 42.2591 45.8479C61.9623 48.3946 74.8012 42.0118 79.1333 39.0417C79.1333 39.0417 82.0605 37.6808 80.3045 39.7844C80.3045 39.7844 67.8953 51.9127 43.5469 52.0353C19.1978 52.1592 -0.116655 39.1656 0.00053042 26.0461C-0.116655 12.9286 19.1978 -0.0663729 43.5469 0.0575195C67.8953 0.181412 80.3045 12.3098 80.3045 12.3098C82.0605 14.4133 79.1333 13.0525 79.1333 13.0525C74.8018 10.0823 62.0175 4.23184 42.2591 6.24559C22.8268 8.2259 16.4839 15.2058 14.3771 19.9085C13.5661 21.7184 13.1997 23.4247 13.1079 25.1441C13.6331 20.6571 16.2713 15.3658 23.0841 15.3658C30.8016 15.3658 33.1633 22.1549 33.1633 26.874C33.1633 31.5937 30.8016 38.3829 23.0841 38.3829ZM101.537 33.8467H111.817V37.8041H97.217V15.9446H101.537V33.8467ZM85.674 26.0218H94.3134V37.8041H91.4334L91.0025 35.064C89.9075 36.4032 88.324 38.3822 84.5517 38.3822C79.5698 38.3822 75.0479 34.6065 75.0479 26.935C75.0479 20.9672 78.1878 15.335 85.1562 15.3658C91.4923 15.3658 93.9978 19.7197 94.2279 22.7338H89.9081C89.9081 21.8809 88.4393 19.1415 85.3863 19.1415C82.3054 19.1415 79.4551 21.3945 79.4551 26.9959C79.4551 32.9637 82.536 34.5167 85.4737 34.5167C86.423 34.5167 89.5913 34.1207 90.4835 29.7065H85.6746V26.0218H85.674ZM23.0841 17.9846C18.592 17.9846 15.885 21.7295 15.885 26.8747C15.885 32.0205 18.592 35.7648 23.0841 35.7648C27.5762 35.7648 30.2833 32.0198 30.2833 26.8747C30.2833 21.7295 27.5762 17.9846 23.0841 17.9846ZM34.7127 23.8252H36.8115V25.8029H36.8624C37.3931 25.0012 38.4044 23.424 40.8064 23.424C44.3207 23.424 46.825 26.5731 46.825 30.5023C46.825 33.8441 45.0033 38.2046 40.5032 38.2046C38.7336 38.2046 37.5704 37.3236 36.9895 36.3337H36.9386V43.3373H34.7127V23.8252ZM40.3351 36.1745C42.7625 36.1745 44.4068 33.9503 44.4068 30.8766C44.4068 29.0857 43.7223 25.5361 40.2843 25.5361C37.0738 25.5361 36.7191 29.1978 36.7191 31.4692C36.7191 35.1846 38.919 36.1745 40.3351 36.1745ZM60.2876 33.4206C60.2126 34.0893 59.6056 36.067 57.9364 37.2436C57.3294 37.671 56.4701 38.2052 54.3465 38.2052C50.6301 38.2052 48.4302 35.239 48.4302 31.203C48.4302 26.872 50.4025 23.424 54.7762 23.424C58.5943 23.424 60.4643 26.6321 60.4643 31.5767H50.8074C50.8074 34.4891 52.097 36.1745 54.6503 36.1745C56.7485 36.1745 57.9873 34.4642 58.0629 33.4206H60.2876ZM57.9302 29.7052C57.8038 27.5413 56.9444 25.5361 54.2392 25.5361C52.1913 25.5361 50.573 27.5413 50.573 29.7052H57.9302ZM72.7613 37.8041H70.5366V29.1978C70.5366 26.7652 69.8788 25.5361 67.7043 25.5361C66.4414 25.5361 64.2155 26.3915 64.2155 30.1863V37.8041H61.9908V23.8252H64.0896V25.8029H64.1404C64.6197 25.0543 65.8598 23.424 68.134 23.424C70.182 23.424 72.7613 24.3063 72.7613 28.2886V37.8041Z" fill="#6D6E70"/>
<path fill-rule="evenodd" clip-rule="evenodd" d="M23.0841 38.3829C17.4338 38.3829 14.6549 34.7441 13.5717 30.9428C14.795 37.1138 21.4045 43.1544 42.2591 45.8479C61.9623 48.3946 74.8012 42.0118 79.1333 39.0417C79.1333 39.0417 82.0604 37.6808 80.3045 39.7844C80.3045 39.7844 67.8953 51.9127 43.5469 52.0353C19.1978 52.1592 -0.116655 39.1656 0.00053042 26.0461C-0.116655 12.9286 19.1978 -0.0663729 43.5469 0.0575195C67.8953 0.181412 80.3045 12.3098 80.3045 12.3098C82.0604 14.4133 79.1333 13.0525 79.1333 13.0525C74.8018 10.0823 62.0175 4.23184 42.2591 6.24559C22.8268 8.2259 16.4839 15.2058 14.3771 19.9085C13.5661 21.7184 13.1997 23.4247 13.1079 25.1441C13.6331 20.6571 16.2713 15.3658 23.0841 15.3658C30.8016 15.3658 33.1633 22.1549 33.1633 26.874C33.1633 31.5937 30.8016 38.3829 23.0841 38.3829ZM101.537 33.8467H111.817V37.8041H97.217V15.9446H101.537V33.8467ZM85.674 26.0218H94.3134V37.8041H91.4334L91.0025 35.064C89.9075 36.4032 88.324 38.3822 84.5517 38.3822C79.5698 38.3822 75.0479 34.6065 75.0479 26.935C75.0479 20.9672 78.1878 15.335 85.1562 15.3658C91.4923 15.3658 93.9978 19.7197 94.2278 22.7338H89.9081C89.9081 21.8809 88.4393 19.1415 85.3863 19.1415C82.3054 19.1415 79.4551 21.3945 79.4551 26.9959C79.4551 32.9637 82.536 34.5167 85.4737 34.5167C86.4229 34.5167 89.5913 34.1207 90.4835 29.7065H85.6746V26.0218H85.674ZM23.0841 17.9846C18.592 17.9846 15.885 21.7295 15.885 26.8747C15.885 32.0205 18.592 35.7648 23.0841 35.7648C27.5762 35.7648 30.2833 32.0198 30.2833 26.8747C30.2833 21.7295 27.5762 17.9846 23.0841 17.9846ZM34.7127 23.8252H36.8115V25.8029H36.8624C37.3931 25.0012 38.4044 23.424 40.8063 23.424C44.3207 23.424 46.8249 26.5731 46.8249 30.5023C46.8249 33.8441 45.0033 38.2046 40.5032 38.2046C38.7336 38.2046 37.5704 37.3236 36.9895 36.3338H36.9386V43.3373H34.7127V23.8252ZM40.3351 36.1745C42.7625 36.1745 44.4068 33.9503 44.4068 30.8766C44.4068 29.0857 43.7223 25.5361 40.2843 25.5361C37.0738 25.5361 36.7191 29.1978 36.7191 31.4692C36.7191 35.1846 38.919 36.1745 40.3351 36.1745ZM60.2876 33.4206C60.2126 34.0893 59.6056 36.067 57.9364 37.2436C57.3294 37.671 56.4701 38.2052 54.3465 38.2052C50.6301 38.2052 48.4302 35.239 48.4302 31.203C48.4302 26.872 50.4025 23.424 54.7762 23.424C58.5943 23.424 60.4643 26.6321 60.4643 31.5767H50.8074C50.8074 34.4891 52.097 36.1745 54.6503 36.1745C56.7485 36.1745 57.9873 34.4642 58.0629 33.4206H60.2876ZM57.9302 29.7052C57.8038 27.5413 56.9444 25.5361 54.2392 25.5361C52.1913 25.5361 50.573 27.5413 50.573 29.7052H57.9302ZM72.7613 37.8041H70.5366V29.1978C70.5366 26.7652 69.8788 25.5361 67.7043 25.5361C66.4413 25.5361 64.2155 26.3915 64.2155 30.1863V37.8041H61.9908V23.8252H64.0896V25.8029H64.1404C64.6197 25.0543 65.8598 23.424 68.134 23.424C70.182 23.424 72.7613 24.3063 72.7613 28.2886V37.8041Z" fill="#5487B2"/>
</svg>
