<svg width="153" height="47" viewBox="0 0 153 47" fill="none" xmlns="http://www.w3.org/2000/svg">
<path d="M17.3237 1.69139C17.6303 1.69139 17.7837 1.85353 18.0903 2.01567C16.2506 2.82636 14.4109 4.93416 13.491 9.47403L10.1183 10.4469C11.1914 7.20409 13.3377 1.69139 17.3237 1.69139ZM19.0101 3.31278C19.3167 4.28561 19.6233 5.42057 19.6233 7.20409C19.6233 7.36623 19.6233 7.36623 19.6233 7.52837L15.1774 8.82548C16.0973 5.42057 17.6303 3.96133 19.0101 3.31278ZM22.9961 6.23126L21.0031 6.87982C21.0031 6.71768 21.0031 6.55554 21.0031 6.3934C21.0031 4.93416 20.8498 3.79919 20.5432 2.82636C21.6163 3.15064 22.5362 4.60988 22.9961 6.23126ZM32.9611 8.82548C32.9611 8.66334 32.8078 8.5012 32.6545 8.5012C32.3478 8.5012 29.1284 8.17692 29.1284 8.17692C29.1284 8.17692 26.8288 5.74485 26.5222 5.58271C26.2156 5.25843 25.7556 5.42057 25.6023 5.42057C25.6023 5.42057 25.1424 5.58271 24.3759 5.90699C23.6093 3.63705 22.2296 1.52926 19.93 1.52926H19.7766C19.1634 0.556426 18.2436 0.23215 17.477 0.23215C11.958 0.0700119 9.35175 7.36623 8.4319 11.0954C7.20545 11.4197 5.97899 11.9061 4.59922 12.3925C3.37276 12.7168 3.37276 12.8789 3.21945 14.0139C3.06615 14.8246 0 40.4424 0 40.4424L24.3759 45.3066L37.5603 42.2259C37.5603 42.2259 32.9611 9.14975 32.9611 8.82548Z" fill="#8DB849"/>
<path d="M32.4964 8.50152C32.3431 8.50152 29.1236 8.17725 29.1236 8.17725C29.1236 8.17725 26.824 5.74518 26.5174 5.58304C26.3641 5.4209 26.3641 5.4209 26.2108 5.4209L24.3711 45.3069L37.5555 42.2263C37.5555 42.2263 32.9563 9.15008 32.9563 8.8258C32.9563 8.66366 32.6497 8.50152 32.4964 8.50152Z" fill="#5A863E"/>
<path d="M19.9334 16.2833L18.247 21.4717C18.247 21.4717 16.8672 20.661 15.0275 20.661C12.4213 20.661 12.268 22.2824 12.268 22.7688C12.268 25.0387 18.0937 26.0116 18.0937 31.5243C18.0937 35.902 15.4875 38.6583 11.9614 38.6583C7.82208 38.6583 5.67578 35.902 5.67578 35.902L6.74893 32.0107C6.74893 32.0107 8.89524 33.9563 10.7349 33.9563C11.9614 33.9563 12.4213 32.9835 12.4213 32.1728C12.4213 29.0922 7.66878 28.9301 7.66878 23.9038C7.66878 19.6882 10.5816 15.6347 16.254 15.6347C18.8602 15.4726 19.9334 16.2833 19.9334 16.2833Z" fill="#FFFFFE"/>
<path d="M53.0432 25.8507C51.6634 25.04 51.0502 24.3914 51.0502 23.5807C51.0502 22.4458 51.97 21.7972 53.5031 21.7972C55.1895 21.7972 56.7225 22.6079 56.7225 22.6079L57.949 18.7166C57.949 18.7166 56.8758 17.7437 53.6564 17.7437C49.0572 17.7437 45.991 20.5001 45.991 24.3914C45.991 26.6613 47.5241 28.2827 49.3638 29.4177C50.8969 30.3905 51.5101 31.0391 51.5101 32.0119C51.5101 32.9847 50.7435 33.9576 49.2105 33.9576C47.0642 33.9576 44.9179 32.8226 44.9179 32.8226L43.6914 36.7139C43.6914 36.7139 45.5311 38.011 48.7505 38.011C53.3498 38.011 56.7225 35.5789 56.7225 31.2012C56.7225 28.7691 55.0361 26.9856 53.0432 25.8507ZM71.5933 17.5816C69.2937 17.5816 67.454 18.7166 66.0743 20.5001L68.0673 9.4747H62.8548L57.7957 37.5246H63.0081L64.6945 27.9585C65.3077 24.3914 67.1474 22.1215 68.8338 22.1215C70.0603 22.1215 70.5202 22.9322 70.5202 24.2293C70.5202 25.04 70.5202 25.8507 70.3669 26.6613L68.3739 37.6867H73.5863L75.5793 26.3371C75.7326 25.2021 75.8859 23.7429 75.8859 22.77C75.8859 19.5273 74.3529 17.5816 71.5933 17.5816ZM84.9311 33.6333C83.0914 33.6333 82.4782 32.0119 82.4782 30.0662C82.4782 26.9856 84.0112 21.7972 86.7708 21.7972C88.6105 21.7972 89.2237 23.4186 89.2237 25.04C89.2237 28.607 87.6906 33.6333 84.9311 33.6333ZM87.5373 17.5816C81.2517 17.5816 77.1124 23.5807 77.1124 30.2284C77.1124 34.444 79.5653 37.8489 84.3178 37.8489C90.4501 37.8489 94.5894 32.0119 94.5894 25.2021C94.5894 21.3108 92.4431 17.5816 87.5373 17.5816ZM102.868 33.7954C101.488 33.7954 100.722 32.9847 100.722 32.9847L101.642 27.7963C102.255 24.3914 103.941 22.1215 105.781 22.1215C107.314 22.1215 107.927 23.7429 107.927 25.2021C107.774 28.7691 105.781 33.7954 102.868 33.7954ZM107.927 17.5816C104.401 17.5816 102.408 20.8244 102.408 20.8244L102.715 17.9059H98.1155C97.9622 19.8515 97.5023 22.9322 97.0424 25.2021L93.363 45.3072H98.5754L99.9552 37.2003H100.109C100.109 37.2003 101.182 37.8489 103.175 37.8489C109.307 37.8489 113.293 31.2012 113.293 24.5535C113.293 20.9865 111.76 17.5816 107.927 17.5816ZM120.652 9.79897C118.965 9.79897 117.739 11.2582 117.739 13.0417C117.739 14.6631 118.659 15.7981 120.192 15.7981C121.878 15.7981 123.258 14.6631 123.258 12.5553C123.258 10.9339 122.185 9.79897 120.652 9.79897ZM113.446 37.5246H118.659L122.185 18.068H116.972L113.446 37.5246ZM135.369 18.068H131.69L131.843 17.0952C132.15 15.1495 133.223 13.5282 134.909 13.5282C135.829 13.5282 136.596 13.8524 136.596 13.8524L137.669 9.4747C137.669 9.4747 136.749 8.98828 134.909 8.98828C133.07 8.98828 131.23 9.4747 129.85 10.7718C128.01 12.3932 127.244 14.6631 126.784 16.9331L126.631 17.9059H124.178L123.411 22.1215H125.864L123.105 37.5246H128.317L131.077 22.1215H134.603L135.369 18.068ZM147.787 18.068C147.787 18.068 144.568 26.6613 143.035 31.3634C142.881 29.9041 141.808 18.068 141.808 18.068H136.289L139.355 35.9032C139.355 36.2275 139.355 36.5518 139.202 36.8761C138.589 38.1732 137.515 39.3081 136.442 40.1188C135.522 40.9295 134.296 41.4159 133.53 41.7402L134.909 46.4422C135.982 46.2801 138.129 45.3072 139.968 43.5237C142.268 41.2538 144.568 37.5246 146.714 32.6605L153 18.2302L147.787 18.068Z" fill="#1A1919"/>
</svg>
