<svg width="232" height="56" viewBox="0 0 232 56" fill="none" xmlns="http://www.w3.org/2000/svg">
<path d="M133.977 21.8105H124.884V22.8304C127.727 22.8304 128.185 23.4749 128.185 27.2879V34.1632C128.185 37.9762 127.728 38.675 124.884 38.675C122.7 38.3525 121.226 37.1174 119.194 34.7538L116.857 32.0688C120.006 31.4772 121.683 29.3832 121.683 27.0197C121.683 24.0664 119.296 21.8105 114.825 21.8105H105.885V22.8304C108.729 22.8304 109.186 23.4749 109.186 27.2879V34.1632C109.186 37.9762 108.729 38.675 105.885 38.675V39.6953H115.993V38.675C113.149 38.675 112.692 37.9762 112.692 34.1632V32.2307H113.555L119.195 39.6953H133.977C141.241 39.6953 144.391 35.614 144.391 30.726C144.391 25.8384 141.241 21.8105 133.977 21.8105ZM112.692 30.5641V23.4219H114.775C117.06 23.4219 118.077 25.0867 118.077 27.0201C118.077 28.9002 117.06 30.5645 114.775 30.5645L112.692 30.5641ZM134.13 38.03H133.774C131.946 38.03 131.692 37.5475 131.692 35.0768V23.4219H134.13C139.413 23.4219 140.377 27.5032 140.377 30.6722C140.377 33.9479 139.412 38.03 134.13 38.03ZM77.5906 32.5522L81.0958 21.5948C82.1122 18.4262 81.6549 17.514 78.4038 17.514V16.4395H87.9539V17.514C84.7537 17.514 83.9918 18.3191 82.7218 22.2397L76.9301 40.6079H76.27L71.0883 23.7973L65.8053 40.6079H65.1448L59.5063 22.2402C58.2867 18.3195 57.4743 17.5145 54.5273 17.5145V16.4399H65.8049V17.5145C62.8074 17.5145 61.9942 18.2661 63.0615 21.5953L66.4649 32.5527L71.5957 16.4399H72.5612L77.5906 32.5522ZM94.8617 40.3927C89.274 40.3927 84.702 36.0428 84.702 30.7251C84.702 25.4616 89.2745 21.1113 94.8617 21.1113C100.45 21.1113 105.021 25.4616 105.021 30.7251C105.021 36.0428 100.45 40.3927 94.8617 40.3927ZM94.8617 22.7775C90.1886 22.7775 88.5626 27.2341 88.5626 30.7255C88.5626 34.2708 90.1886 38.6745 94.8617 38.6745C99.5865 38.6745 101.212 34.2708 101.212 30.7255C101.212 27.2341 99.5865 22.7775 94.8617 22.7775Z" fill="#00749A"/>
<path d="M156.938 38.6221V39.6963H145.305V38.6221C148.709 38.6221 149.319 37.709 149.319 32.3375V23.7454C149.319 18.3739 148.709 17.5155 145.305 17.5155V16.4404H155.82C161.052 16.4404 163.949 19.287 163.949 23.1009C163.949 26.8068 161.052 29.7067 155.82 29.7067H152.924V32.3375C152.924 37.7095 153.534 38.6221 156.938 38.6221ZM155.82 18.3739H152.924V27.7194H155.82C158.665 27.7194 159.986 25.625 159.986 23.1009C159.986 20.523 158.665 18.3739 155.82 18.3739ZM198.847 34.6481L198.593 35.6146C198.136 37.387 197.576 38.0315 193.97 38.0315H193.258C190.617 38.0315 190.16 37.387 190.16 33.5744V31.1042C194.122 31.1042 194.427 31.4795 194.427 34.2727H195.393V26.2695H194.427C194.427 29.0622 194.122 29.438 190.16 29.438V23.4234H192.953C196.561 23.4234 197.119 24.0678 197.576 25.8403L197.831 26.8606H198.643L198.288 21.8124H183.353V22.8323C186.197 22.8323 186.655 23.4767 186.655 27.2898V34.1646C186.655 37.6529 186.267 38.5317 184.024 38.6574C181.892 38.3128 180.429 37.084 178.426 34.7553L176.089 32.0702C179.239 31.4786 180.915 29.3847 180.915 27.0211C180.915 24.0678 178.528 21.812 174.058 21.812H165.117V22.8318C167.962 22.8318 168.419 23.4763 168.419 27.2893V34.1646C168.419 37.9777 167.962 38.6764 165.117 38.6764V39.6967H175.226V38.6764C172.383 38.6764 171.924 37.9777 171.924 34.1646V32.2321H172.788L178.427 39.6967H199.305L199.61 34.649L198.847 34.6481ZM171.924 30.5655V23.4234H174.006C176.292 23.4234 177.308 25.0882 177.308 27.0216C177.308 28.9016 176.292 30.566 174.006 30.566L171.924 30.5655ZM209.159 40.3941C207.127 40.3941 205.348 39.2666 204.587 38.5679C204.332 38.837 203.876 39.6424 203.774 40.3941H202.809V32.9829H203.825C204.232 36.5277 206.568 38.6221 209.565 38.6221C211.191 38.6221 212.512 37.6552 212.512 36.0447C212.512 34.6485 211.344 33.574 209.26 32.5537L206.364 31.1037C204.332 30.0825 202.809 28.3096 202.809 25.9475C202.809 23.3696 205.095 21.1679 208.245 21.1679C209.921 21.1679 211.343 21.8129 212.207 22.5645C212.461 22.3492 212.715 21.7586 212.868 21.1137H213.833V27.4517H212.766C212.41 24.9271 211.089 22.8327 208.397 22.8327C206.975 22.8327 205.654 23.6916 205.654 25.0352C205.654 26.4314 206.72 27.183 209.159 28.3643L211.953 29.8143C214.391 31.0494 215.356 33.0376 215.356 34.6485C215.356 38.0315 212.562 40.3941 209.159 40.3941ZM224.805 40.3941C222.772 40.3941 220.994 39.2666 220.233 38.5679C219.978 38.837 219.522 39.6424 219.421 40.3941H218.455V32.9829H219.471C219.878 36.5277 222.214 38.6221 225.211 38.6221C226.837 38.6221 228.158 37.6552 228.158 36.0447C228.158 34.6485 226.99 33.574 224.906 32.5537L222.01 31.1037C219.978 30.0825 218.455 28.3096 218.455 25.9475C218.455 23.3696 220.741 21.1679 223.891 21.1679C225.567 21.1679 226.988 21.8129 227.853 22.5645C228.107 22.3492 228.361 21.7586 228.513 21.1137H229.478V27.4517H228.412C228.056 24.9271 226.735 22.8327 224.043 22.8327C222.621 22.8327 221.299 23.6916 221.299 25.0352C221.299 26.4314 222.366 27.183 224.805 28.3643L227.598 29.8143C230.037 31.0494 231.002 33.0376 231.002 34.6485C231.001 38.0315 228.208 40.3941 224.805 40.3941Z" fill="#464342"/>
<path d="M3.72657 27.7068C3.72657 37.1152 8.89798 45.2451 16.3969 49.0984L5.67339 18.0338C4.38769 21.0773 3.72428 24.3735 3.72657 27.7068ZM41.3847 26.5074C41.3847 23.5699 40.3867 21.5357 39.5307 19.9523C38.3911 17.9944 37.323 16.3364 37.323 14.3786C37.323 12.1937 38.8904 10.1599 41.0981 10.1599C41.1978 10.1599 41.2923 10.173 41.3894 10.1789C37.3897 6.30524 32.0609 3.93945 26.2084 3.93945C18.3544 3.93945 11.4441 8.19977 7.42471 14.6527C7.95173 14.6694 8.44924 14.6807 8.87146 14.6807C11.223 14.6807 14.8629 14.379 14.8629 14.379C16.0748 14.3035 16.2177 16.1854 15.0071 16.3369C15.0071 16.3369 13.7892 16.4884 12.434 16.5635L20.6204 42.309L25.5403 26.7091L22.0376 16.563C20.827 16.4879 19.6797 16.3364 19.6797 16.3364C18.4682 16.2614 18.6103 14.3031 19.8217 14.3786C19.8217 14.3786 23.5348 14.6802 25.7439 14.6802C28.0945 14.6802 31.7353 14.3786 31.7353 14.3786C32.9481 14.3031 33.0905 16.1849 31.8795 16.3364C31.8795 16.3364 30.6586 16.4879 29.306 16.563L37.4304 42.1132L39.6728 34.1909C40.6451 30.9034 41.3847 28.5421 41.3847 26.5074Z" fill="#464342"/>
<path d="M26.6011 29.7832L19.8555 50.505C21.9178 51.1475 24.0567 51.4738 26.2067 51.4737C28.7493 51.4744 31.2735 51.0189 33.6718 50.1264C33.6095 50.0225 33.5559 49.9129 33.5119 49.799L26.6011 29.7832ZM45.9332 16.3008C46.0304 17.0579 46.0847 17.871 46.0847 18.7448C46.0847 21.1567 45.6586 23.868 44.3753 27.2582L37.5082 48.2491C44.1918 44.1285 48.6873 36.4731 48.6873 27.7041C48.6933 23.7183 47.7459 19.7956 45.9332 16.3008Z" fill="#464342"/>
<path d="M26.2065 0C11.7566 0 0 12.4286 0 27.7056C0 42.9844 11.7566 55.4131 26.207 55.4131C40.656 55.4131 52.4148 42.9849 52.4148 27.7056C52.4139 12.4286 40.656 0 26.2065 0ZM26.2065 54.1427C12.4193 54.1427 1.20163 42.283 1.20163 27.7056C1.20163 13.1296 12.4188 1.27086 26.2065 1.27086C39.9934 1.27086 51.2097 13.1296 51.2097 27.7056C51.2102 42.283 39.9934 54.1427 26.2065 54.1427Z" fill="#464342"/>
</svg>
